<svg xmlns="http://www.w3.org/2000/svg" viewBox="0 0 512 512" style="enable-background:new 0 0 512 512" xml:space="preserve"><style>.st3{opacity:.5;fill:none;stroke:#fff;stroke-width:2;stroke-linecap:round;stroke-linejoin:round;stroke-miterlimit:10}</style><path style="fill:#3e0fa1" d="M312 267v218.3L505 459l7-204.5z"/><path style="fill:#361493" d="M312 485.3 233 406V231l79 36z"/><path style="fill:#491caf" d="m312 267-79-36 182-7 97 30.5z"/><path class="st3" d="M476.7 256.7 312 267v199.4"/><path style="fill:#bfbf00" d="m59 502-4-224 219-15v212z"/><path style="fill:#b9b901" d="m59 502-41-69-5-192 42 37z"/><path style="fill:#b2b201" d="m55 278-42-37 195-10 66 32z"/><path class="st3" d="M58.6 479.6 55 278l191.1-13.1"/><path style="fill:#019f01" d="M296.1 237.1 246 221.3 242 10h55z"/><path style="fill:#00b300" d="m296 10-.3 227.3 193-10L495.2 10z"/><path class="st3" d="m296 20.3-.3 203.7"/><path style="fill:#9f0000" d="M51.9 250.3 47 10h225v229.3z"/><path style="fill:#900000" d="m52 250.3-46-32L0 10h47.1z"/><path class="st3" d="m51.6 236.3-4.4-216"/></svg>