<svg version="1.1" xmlns="http://www.w3.org/2000/svg" x="0" y="0" viewBox="0 0 512 115.7" xml:space="preserve"><path d="M231.3 97.7c-1.6 0-3.2.7-4.1 2.1h-.1v-1.7h-2.6v17.2h2.8V109c1 1.4 2.4 2 4.1 2 3.4 0 5.6-2.6 5.6-6.6 0-4.1-2.2-6.7-5.7-6.7zm-.5 11.1c-2.2 0-3.5-1.7-3.5-4.4s1.3-4.4 3.4-4.4c2.2 0 3.5 1.8 3.5 4.5 0 2.6-1.3 4.3-3.4 4.3zm31-10.5h2.9l-4.8 12.2c-.9 2.4-1.6 5.1-4.7 5.1-.6 0-1 0-1.9-.1v-2.3c.8.1 1.1.2 1.5.2 1.4 0 1.8-1.8 2.1-2.9l-4.8-12.2h3.1l3.4 9.3 3.2-9.3zm-125.6 2.3h.1-.1zm-12.5 3.6h3.1c-.4 4.1-3.3 7-7.6 7-4.9 0-8.1-3.6-8.1-9.1 0-4.9 3-9.1 8.3-9.1 3.5 0 6.7 1.9 7.3 5.9h-3c-.4-2.1-2.1-3.3-4.3-3.3-3.7 0-5.2 3.3-5.2 6.5s1.4 6.5 5.1 6.5c2.8 0 4.1-1.9 4.4-4.4zm126.9-2v8.5h-2.8v-7.6c0-1.7-.4-3-2.4-3-2.3 0-3.1 1.7-3.1 3.8v6.8h-2.8V93.4h2.8v6.5c.9-1.3 2.2-2.1 4-2.1 2.7 0 4.3 1.5 4.3 4.4zm-41.2-1.6s.1 0 0 0zm-10-2.4h-2.6v1.8c-1-1.4-2.1-2.1-3.9-2.1-3.4 0-5.6 2.5-5.6 6.5 0 3.9 2.2 6.3 5.5 6.3 1.8 0 3-.6 4-2.1v1.5c0 2.6-1 3.7-3.3 3.7-1.7 0-2.6-.6-2.9-1.9h-2.8c.3 2.5 2.2 3.8 5.6 3.8 4.6 0 6.1-2.3 6.1-6.4h-.1V98.2zm-6 10.2c-2 0-3.3-1.6-3.3-4.1 0-2.7 1.2-4.3 3.3-4.3s3.4 1.5 3.4 4.1c0 2.6-1.3 4.3-3.4 4.3zm28.2-.4v-6.4c0-2.7-2.2-3.8-5.2-3.8-3.1 0-5.2 1.1-5.4 4.3h2.6c.2-1.6 1-2.2 2.8-2.2s2.6.6 2.6 1.9c0 .5-.1.8-.2.9-.3.3-.9.5-2.8.7-2.5.3-5.6.7-5.6 4 0 2.4 1.6 3.8 4.2 3.8 1.6 0 3.3-.4 4.4-1.5.2 1.1 1 1.5 2.1 1.5.5 0 .9-.1 1.8-.3v-2h-.6c-.6 0-.7-.2-.7-.9zm-2.6-2.1c0 .8 0 1.6-.6 2.2-.7.6-1.8 1-2.9 1-1.5 0-2.3-.7-2.3-1.9 0-1.7 1.5-1.9 2.8-2.1 1-.1 2-.2 3-.7v1.5zm-9.6-8.1v2.8c-.4 0-.6-.1-.9-.1-2.8 0-3.6 2.1-3.6 4.7v5.5h-2.8V98.1h2.6v2.5c.8-1.7 2.2-2.8 4.2-2.8h.5zm-40.4 2.4v6.6c0 1.2 0 1.8 1.4 1.8h1.1v2.2c-.8.1-1.2.1-1.9.1-3.7 0-3.4-1.8-3.4-4.7v-6H164v-2h2.1v-3.8h2.8v3.8h2.5l.1 2H169zm-22.9-1.9h2.9l-4.8 12.2c-.9 2.4-1.6 5.1-4.7 5.1-.6 0-1 0-1.9-.1v-2.3c.8.1 1.1.2 1.5.2 1.4 0 1.8-1.8 2.1-2.9l-4.8-12.2h3.1l3.4 9.3 3.2-9.3zm137.5 9.7v-6.4c0-2.7-2.2-3.8-5.2-3.8-3.1 0-5.2 1.1-5.4 4.3h2.6c.2-1.6 1-2.2 2.8-2.2 1.8 0 2.6.6 2.6 1.9 0 .5-.1.8-.2.9-.3.3-.9.5-2.8.7-2.5.3-5.6.7-5.6 4 0 2.4 1.6 3.8 4.2 3.8 1.6 0 3.3-.4 4.4-1.5.2 1.1 1 1.5 2.1 1.5.5 0 .9-.1 1.8-.3v-2h-.6c-.6 0-.7-.2-.7-.9zm-2.7-2.1c0 .8 0 1.6-.6 2.2-.7.6-1.8 1-2.9 1-1.5 0-2.3-.7-2.3-1.9 0-1.7 1.5-1.9 2.8-2.1 1-.1 2-.2 3-.7v1.5zm-123.7-8.2c-1.6 0-3.2.7-4.1 2.1h-.1v-1.7h-2.6v17.2h2.8V109c1 1.4 2.4 2 4.1 2 3.4 0 5.6-2.6 5.6-6.6 0-4.1-2.2-6.7-5.7-6.7zm-.6 11.1c-2.2 0-3.5-1.7-3.5-4.4s1.3-4.4 3.4-4.4c2.2 0 3.5 1.8 3.5 4.5 0 2.6-1.3 4.3-3.4 4.3zm195-3.2c0 3.9-3.5 5.4-6.9 5.4-4.1 0-7.3-2-7.3-6.2h3c0 2.7 2 3.7 4.5 3.7 2.3 0 3.7-1 3.7-2.7 0-1.8-1.5-2.1-4.1-2.8-3.7-1-6.5-1.6-6.5-5.1 0-3.1 2.5-5.1 6.4-5.1 3.5 0 6.3 1.6 6.5 5.5H348v.2c-.2-2.2-1.6-3.1-3.8-3.1-2.1 0-3.3.9-3.3 2.4 0 1.7 1.1 1.8 4.4 2.6 3 .8 6.3 1.5 6.3 5.2zm-172.3-7.9c-3.9 0-6.4 2.6-6.4 6.7s2.5 6.7 6.4 6.7c3.9 0 6.3-2.6 6.3-6.7 0-4-2.5-6.6-6.3-6.7zm0 11.2c-2.3 0-3.6-1.7-3.6-4.5 0-2.7 1.4-4.4 3.6-4.4s3.5 1.6 3.5 4.4c0 2.8-1.3 4.5-3.5 4.5zm118.4-6.6v8.4h-2.8v-7.3c0-1.7-.2-3.3-2.4-3.3-1.7 0-3.1.9-3.1 3.8v6.8h-2.8V98.1h2.6v1.9c1-1.5 2.3-2.2 4.2-2.2 2.9 0 4.3 1.7 4.3 4.5zm12.1-2.5c-.9-1.3-2.2-2-4-2-3.5 0-5.7 2.5-5.7 6.6s2.2 6.7 5.8 6.7c1.9 0 3.2-.7 4-2.1v1.7h2.6V93.4h-2.7v6.4zm-3.5 9.1c-2.2 0-3.5-1.7-3.5-4.5 0-2.7 1.4-4.4 3.4-4.3 2.3 0 3.6 1.6 3.6 4.4s-1.3 4.4-3.5 4.4zM136.2 97.8v2.8c-.4 0-.6-.1-.9-.1-2.8 0-3.6 2.1-3.6 4.7v5.5h-2.8V98.1h2.6v2.5c.8-1.7 2.2-2.8 4.2-2.8h.5zm199.6 7.8c0 3.9-3.5 5.4-6.9 5.4-4.1 0-7.3-2-7.3-6.2h3c0 2.7 2 3.7 4.5 3.7 2.3 0 3.7-1 3.7-2.7 0-1.8-1.5-2.1-4.1-2.8-3.7-1-6.5-1.6-6.5-5.1 0-3.1 2.5-5.1 6.4-5.1 3.5 0 6.3 1.6 6.5 5.5h-2.9v.2c-.2-2.2-1.6-3.1-3.8-3.1-2.1 0-3.3.9-3.3 2.4 0 1.7 1.1 1.8 4.4 2.6 3 .8 6.3 1.5 6.3 5.2zm39.5-12.2h14V96h-5.5v14.7h-3.1V96h-5.5v-2.2l-6.7 17.4H366l.2-.5h-11.9V93.4h3.1v14.7h8.8v2.6l6.9-17.7h2.4l-.2.4zm65.2 2.6H435v14.7h-3.1V96h-5.5v-2.6h14.1V96zm46.9-2.7h2.8V96h-2.8v-2.7zm0 4.8h2.8v12.6h-2.8V98.1zm-6.8 4.7l5.3 8h-3.4l-3.8-6.1-1.7 1.6v4.5h-2.7V93.4h2.7v9.8l5-5h3.4l-4.8 4.6zm-86.2 5.3h8.8v2.6h-11.9V93.4h3.1v14.7zm102.5-7.9v6.6c0 1.2 0 1.8 1.4 1.8h1.1v2.2c-.8.1-1.2.1-1.9.1-3.7 0-3.4-1.8-3.4-4.7v-6H492v-2h2.1v-3.8h2.8v3.8h2.5v2h-2.5zm-78.3 5.4c0 3.9-3.5 5.4-6.9 5.4-4.1 0-7.3-2-7.3-6.2h3c0 2.7 2 3.7 4.5 3.7 2.3 0 3.7-1 3.7-2.7 0-1.8-1.5-2.1-4.1-2.8-3.7-1-6.5-1.6-6.5-5.1 0-3.1 2.5-5.1 6.4-5.1 3.5 0 6.3 1.6 6.5 5.5H415v.2c-.2-2.2-1.6-3.1-3.8-3.1-2.1 0-3.3.9-3.3 2.4 0 1.7 1.1 1.8 4.4 2.6 3 .8 6.3 1.5 6.3 5.2zm26.6-7.9c-3.9 0-6.4 2.6-6.4 6.7s2.5 6.7 6.4 6.7c3.9 0 6.3-2.6 6.3-6.7 0-4-2.4-6.6-6.3-6.7zm0 11.2c-2.3 0-3.6-1.7-3.6-4.5 0-2.7 1.4-4.4 3.6-4.4s3.5 1.6 3.5 4.4c0 2.8-1.3 4.5-3.5 4.5zm23.2-15.5h2.8v17.3h-2.8V93.4zm-8.7 4.3c-3.9 0-6.4 2.6-6.4 6.7s2.5 6.7 6.4 6.7c3.9 0 6.3-2.6 6.3-6.7 0-4-2.5-6.6-6.3-6.7zm0 11.2c-2.3 0-3.6-1.7-3.6-4.5 0-2.7 1.3-4.4 3.6-4.4 2.2 0 3.5 1.6 3.5 4.4 0 2.8-1.3 4.5-3.5 4.5z"/><path d="M81.9 45.8c0 27.1-16.6 45.3-41.1 45.3C16.4 91.1 0 72.8 0 45.6 0 18.5 16.5 0 40.9 0c24.3 0 41 18.6 41 45.8zm-73.6-.5c0 23.3 12.9 38.6 32.6 38.6s32.7-15.3 32.7-38.2c0-23-13.2-38.5-32.8-38.5-19.4 0-32.5 15.4-32.5 38.1zm92.5-6.9c4.5-9.3 12-13.9 22.5-13.9 17.1 0 28.3 13.3 28.3 33.5 0 19.9-11.2 33.1-28.1 33.1-10.1 0-17.9-4.5-22.2-13.6v35h-7.4V26.3h7l-.1 12.1zm.3 19.4c0 16.5 8.3 26.7 21.5 26.7 12.8 0 21.2-10.5 21.2-26.6 0-16.5-8.3-27.1-21.5-27.1s-21.2 10.1-21.2 27zM189 91.1c-17.5 0-28.8-12.8-28.8-32.7s11.8-33.8 28.7-33.8c18.6 0 27.6 15.4 27.6 32.7v2.2H168c0 13.2 6.1 25.4 21.2 25.4 10 0 16.7-5.6 19.2-16.5h7.4c-2.6 13.9-12 22.7-26.8 22.7zm-.4-60.2c-13.7 0-19.2 10.6-20.6 22.3h40.8c-.9-13.9-8.5-22.3-20.2-22.3zm45.5 7.2c5-8.9 11.4-13.6 22.2-13.6 12.2 0 21.7 6.3 21.7 21.7V89h-7.7V48.7c0-12.9-6.5-17.5-16-17.5-11.5 0-19.8 7.6-19.8 23.8v34h-7.7V26.3h7.2l.1 11.8z" fill="#721412"/><path d="M342.3 27.7c-1-10.9-8.2-15.3-18.9-15.3-10.4 0-16.6 4.5-16.6 12.1 0 8.3 5.4 8.8 22.1 13.2 14.8 3.8 31.4 7.3 31.4 26 0 19.7-17.5 27.2-34.5 27.2-20.6 0-36.6-9.8-36.6-30.8h15c0 13.4 10.1 18.7 22.5 18.7 11.7 0 18.7-5.1 18.7-13.7 0-9-7.4-10.6-20.3-13.9-18.4-4.8-32.7-7.8-32.7-25.5C292.4 10.2 305 .3 324.5.3c17.7 0 31.7 7.9 32.5 27.3h-14.7v.1zm79.1 0c-1-10.9-8.2-15.3-18.9-15.3-10.4 0-16.6 4.5-16.6 12.1 0 8.3 5.4 8.8 22.1 13.2 14.8 3.8 31.4 7.3 31.4 26 0 19.7-17.5 27.2-34.5 27.2-20.6 0-36.6-9.8-36.6-30.8h15c0 13.4 10.1 18.7 22.5 18.7 11.7 0 18.7-5.1 18.7-13.7 0-9-7.4-10.6-20.3-13.9-18.4-4.8-32.7-7.8-32.7-25.5 0-15.5 12.6-25.4 32.1-25.4 17.7 0 31.7 7.9 32.5 27.3l-14.7.1zM512 89h-59.6V2.1h15.4v73.7H512V89z"/></svg>