<svg version="1.1" id="icon_1_" xmlns="http://www.w3.org/2000/svg" x="0" y="0" viewBox="0 0 512 130" xml:space="preserve"><style type="text/css">.st0{fill:#81ade5}.st1{fill:#fff}</style><path class="st0" d="M48.6 65.5H18.7l-15 25.9 15 25.9h29.9l14.9-25.9-14.9-25.9z"/><path class="st1" d="M48.6 65.5l15 25.9-15 25.9H18.7l-15-25.9 15-25.9h29.9m1.8-3.2H16.9l-.9 1.6L1 89.8l-1 1.6.9 1.6 15 25.9.9 1.6h33.5l.9-1.6 15-25.9.9-1.6-.9-1.6-15-25.9-.8-1.6z"/><path class="st0" d="M103.5 36.3H73.6l-14.9 26 14.9 25.9h29.9l15-25.9-15-26z"/><path class="st1" d="M103.5 36.3l15 25.9-15 25.9H73.6l-15-25.9 15-25.9h29.9m1.9-3.2H71.9l-.9 1.6-15 25.9-1 1.7.9 1.6 15 25.9.9 1.6h33.5l.9-1.6 15-25.9.9-1.6-.9-1.6-15-25.9-.8-1.7z"/><path class="st0" d="M72.5 26.3l-8.2-14H34.4l-15 25.8 9.9 17h21.5l16.7-28.8h5z"/><path class="st1" d="M64.3 12.3l8.1 14.1h-5L50.8 55.1H29.2l-9.8-17 14.9-25.9 30 .1m1.9-3.2H32.6l-.9 1.6-15 25.8-.9 1.6.9 1.6 9.8 17 .9 1.6h25.2l.9-1.6 15.7-27.2h8.7l-2.8-4.8L67 10.6l-.8-1.5z"/><path d="M170.7 0l-3.5 26.4H183c7 0 12.5.9 16.4 2.6 4 1.7 7.2 4.6 9.7 8.6 2.1 3.3 3.5 7 4.2 11s.7 8.5.1 13.3c-1.6 11.7-5.8 20.9-12.7 27.5s-15.6 9.9-26.3 9.9h-35.5L152.3 0h18.4zm5.6 42.1H165l-5.6 41.5h12.7c7 0 12.2-1.5 15.4-4.6 3.3-3.1 5.4-8.3 6.4-15.7 1-7.6.2-13-2.5-16.3-2.7-3.2-7.7-4.9-15.1-4.9zm120.4 20.8c-1.5 11.4-6.1 20.6-13.7 27.4-7.6 6.8-17 10.2-28.3 10.2s-19.8-3.4-25.6-10.3c-5.8-6.8-7.9-16-6.4-27.3 1.5-11.4 6.1-20.6 13.8-27.5 7.6-6.9 17.1-10.3 28.4-10.3 11.2 0 19.7 3.4 25.5 10.3 5.7 6.9 7.9 16 6.3 27.5zm-54.6 0c-.9 6.9-.1 12.3 2.5 16.2s6.6 5.8 12.2 5.8c5.5 0 10.1-1.9 13.8-5.8 3.7-3.9 6-9.3 6.9-16.2s.1-12.3-2.5-16.2c-2.6-3.8-6.7-5.8-12.2-5.8s-10.1 1.9-13.7 5.8c-3.8 3.9-6.1 9.3-7 16.2zm140 0c-1.5 11.4-6.1 20.6-13.7 27.4-7.6 6.8-17 10.2-28.3 10.2s-19.8-3.4-25.6-10.3c-5.8-6.8-7.9-16-6.4-27.3 1.5-11.4 6.1-20.6 13.8-27.5 7.6-6.9 17.1-10.3 28.4-10.3 11.2 0 19.7 3.4 25.5 10.3 5.7 6.9 7.9 16 6.3 27.5zm-54.6 0c-.9 6.9-.1 12.3 2.5 16.2s6.6 5.8 12.2 5.8c5.5 0 10.1-1.9 13.8-5.8 3.7-3.9 6-9.3 6.9-16.2s.1-12.3-2.5-16.2c-2.6-3.8-6.7-5.8-12.2-5.8s-10.1 1.9-13.7 5.8c-3.8 3.9-6.1 9.3-7 16.2zm60 21.2h38.8c3.4 0 6-.6 7.8-1.7 1.7-1.1 2.8-2.9 3.1-5.4.3-2.5-.2-4.3-1.7-5.4-1.4-1.1-3.9-1.7-7.3-1.7h-15.9c-9.4 0-15.6-1.5-18.5-4.5S390 57 391 49.3c1.1-7.8 3.8-13.6 8.3-17.3s10.9-5.5 19.3-5.5h39.5l-2 15.2h-32.5c-5.3 0-8.8.5-10.5 1.5s-2.8 2.7-3.1 5.2c-.3 2.3.2 3.9 1.4 5 1.3 1.1 3.4 1.6 6.4 1.6h16.7c7.6 0 13.2 1.9 16.7 5.6 3.5 3.7 4.8 9.1 3.8 16.1-.9 6.8-3.4 12.2-7.5 16.5-4.1 4.2-9 6.3-14.6 6.3h-47.5l2.1-15.4zm78.6-57.7h11L480.6 0H499l-3.5 26.4H512l-2 14.5h-16.5l-4 29.4c-.7 5.4-.3 9.2 1.1 11.2 1.5 2.1 4.4 3.1 8.8 3.1h4.6l-2 14.5h-13.9c-6.8 0-11.7-2-14.8-5.9-3.1-3.9-4.1-9.6-3.2-16.9l4.8-35.5h-11l2.2-14.4zm-322.5 91.5c-1.3 0-2.2.4-2.9 1.2-.7.8-1.1 2.1-1.4 4-.2 1.6-.1 2.7.3 3.4.4.7 1.3 1 2.6 1h5l-.4 2.5h-5.2c-1.1 0-2-.1-2.7-.3-.6-.2-1.2-.5-1.7-1-.7-.6-1.1-1.4-1.4-2.3-.2-1-.3-2.2-.1-3.5.4-2.6 1.2-4.5 2.5-5.7s3.1-1.8 5.4-1.8h5.1l-.3 2.5h-4.8zm27.5 0h2l-.7 5h4.9l-.3 2h-4.9l-.7 5.1h-2l.7-5.1h-4.9l.3-2h4.9l.7-5zm29.2 0h2l-.7 5h4.9l-.3 2h-4.9l-.7 5.1h-2l.7-5.1h-4.9l.3-2h4.9l.7-5zm54.3 12.1c-1.4 0-2.4-.1-3-.3s-1.2-.6-1.6-1.2c-.4-.5-.7-1.1-.8-1.7s-.1-1.5.1-2.7l1.2-8.7h3.1l-1.2 8.6c-.1.9-.2 1.4-.1 1.8 0 .3.1.6.3.8.2.3.6.6 1 .7s1 .2 1.7.2h3.6l-.3 2.5h-4zm27.9 0h-3.2l2-14.6h3.2l-2 14.6zm27.2 0h-8l2-14.6h7.5c.9 0 1.7.1 2.3.2.6.1 1 .3 1.4.5.5.3.8.8 1 1.3s.3 1.1.2 1.8c-.1.8-.4 1.5-.8 2.1s-1 1-1.8 1.4c.7.3 1.2.7 1.5 1.3.3.5.4 1.2.3 2-.2 1.4-.7 2.4-1.6 3-1 .7-2.3 1-4 1zm-.1-2.6c.7 0 1.2-.1 1.6-.4s.6-.7.7-1.3c.1-.6 0-1-.3-1.3s-.8-.4-1.5-.4h-4.5l-.5 3.4h4.5zm-3.2-9.3l-.5 3.4h4.5c.7 0 1.2-.1 1.6-.4s.6-.7.7-1.3c.1-.6 0-1-.3-1.3s-.8-.4-1.5-.4h-4.5zm28.9-2.7h7.5c1.8 0 3 .4 3.7 1.1s1 1.8.8 3.3c-.2 1.1-.5 2-1.1 2.7s-1.4 1.2-2.4 1.4l2.8 6.1h-3.4l-2.4-5.7h-3.6l-.8 5.7h-3.1l2-14.6zm6.4 2.6H338l-.5 3.7h3.8c1 0 1.7-.1 2.2-.4.4-.3.7-.8.8-1.4.1-.7 0-1.1-.4-1.4-.5-.3-1.2-.5-2.2-.5zm30.1-2.6h3.2l4.2 14.6h-3.4l-.8-3.5h-6.3l-1.8 3.5h-3.2l8.1-14.6zm1.1 2.9l-2.9 5.6h4.3l-1.4-5.6zm25.6-2.9h7.5c1.8 0 3 .4 3.7 1.1s1 1.8.8 3.3c-.2 1.1-.5 2-1.1 2.7s-1.4 1.2-2.4 1.4l2.8 6.1h-3.4l-2.4-5.7h-3.6l-.8 5.7h-3.1l2-14.6zm6.5 2.6h-3.8l-.5 3.7h3.8c1 0 1.7-.1 2.2-.4.4-.3.7-.8.8-1.4.1-.7 0-1.1-.4-1.4s-1.1-.5-2.1-.5zm27.1 12h-3.2l2-14.6h3.2l-2 14.6zm26.9-11.9c-1.1 0-2 .3-2.6.8-.6.6-1.1 1.4-1.3 2.5h8.5l-.4 2.5h-8.5c-.2 1.3 0 2.2.4 2.7.5.6 1.3.8 2.5.8h5l-.4 2.6H457c-1.1 0-2-.1-2.6-.3s-1.2-.5-1.7-1c-.7-.6-1.1-1.4-1.4-2.3-.2-1-.3-2.1-.1-3.4.4-2.6 1.2-4.6 2.5-5.8s3.1-1.8 5.4-1.8h5.1l-.2 2.7h-5zm38.2-.1h-7.6c-.8 0-1.4.2-1.9.5-.4.3-.7.8-.8 1.4-.1.5 0 .9.3 1.2.3.3.7.4 1.4.4h4c1.7 0 2.8.3 3.4 1 .6.6.8 1.6.6 3.1-.2 1.5-.8 2.6-1.7 3.3-.9.7-2.3 1.1-4 1.1H483l.4-2.5h7.7c.9 0 1.5-.1 1.9-.4s.6-.7.7-1.3c.1-.6 0-1-.3-1.3s-.8-.4-1.6-.4h-3.6c-1.7 0-2.9-.3-3.5-1-.7-.7-.9-1.7-.7-3.2.2-1.5.8-2.7 1.7-3.4.9-.7 2.3-1.1 4-1.1h8l-.5 2.6z" fill="#4a6484"/></svg>