<svg version="1.1" id="icon" xmlns="http://www.w3.org/2000/svg" x="0" y="0" viewBox="0 0 512 512" xml:space="preserve"><style type="text/css">.st0{fill:#f4f4f4}.st1{fill:#5ba04a}.st2{fill:#4b4c4c}</style><ellipse transform="rotate(-53.843 412.913 141.554)" class="st0" cx="412.9" cy="141.6" rx="77.1" ry="54.1"/><path class="st1" d="M184.5 262.2s2.7 13.7.5 18.7-17.3 19.1-17.3 19.1l31.7 4.3s4-10.8 5-17.7c1-7-.3-18.9-.3-18.9"/><path class="st1" d="M328.9 159.3c-18.6-5.1-64.8-45.5-130.2-50s-102 78.9-112.2 112.2-14.8 60.3-10.3 103.3 30.1 86.9 45.2 102.9 35 36.2 63.2 36.2c37.8 0 51.4-28 54.5-41.4 4.3-23-17.6-67.3-47.5-69s-38.5 17.3-38.5 30.1 15.1 26.9 26.6 27.6c11.5.6 24.1-7.1 22.8-18s-9.6-5.8-9.6-5.8 1.9 9.6-6.4 10.3c-8.3.6-16-6.4-14.8-14.1s9.6-14.8 23.7-12.8c14.1 1.9 30.1 30.8 27.6 44.9s-8.3 35.9-39.1 29.5c-39.8-8.3-88.5-80.8-86.6-133.4s41-80.8 41-80.8 32.1 44.9 94.3 42.3 105.8-16.7 105.8-16.7 16.1 6.6 39.8 4.5c34.7-7.1 66.8-34 66.8-34s-21.3-39.1-41.2-50.7-56.3-12-74.9-17.1z"/><ellipse transform="rotate(-9.119 319.08 127.78)" class="st0" cx="319.1" cy="127.8" rx="56.8" ry="80.3"/><circle class="st2" cx="302.7" cy="141" r="13.3"/><circle class="st2" cx="445.1" cy="127.8" r="13.3"/><path d="M42.8 295H4.3S0 304 0 312.8s4.3 17.8 4.3 17.8h38.5V295z" fill="#d07b84"/><path class="st0" d="M73.6 295H35.1s-4.3 9-4.3 17.8 4.3 17.8 4.3 17.8h38.5V295z"/><path d="M423.2 295H62.1s-4.3 9-4.3 17.8 4.3 17.8 4.3 17.8h361.1l88.8-17.8-88.8-17.8z" fill="#e1ab07"/><path class="st0" d="M423.2 295s-5.4 6.3-5.4 17.8 5.4 17.8 5.4 17.8l88.8-17.8-88.8-17.8z"/><path class="st2" d="M468.7 304.1s-2.2 4-2.2 8.7 2.2 8.7 2.2 8.7l43.3-8.7-43.3-8.7z"/><path class="st1" d="M338.8 330.6c0 2.6 11.6 19.9 32.4 17.9 21.3-2.1 32.4-17.9 32.4-17.9h-21.2s-5.9 3.3-13.9 3.3-12.7-1.1-15.2-3.3c-2.5-2.2-2-5-8.1-5-4.5 0-6.4 2.4-6.4 5zM141.6 228.5s-7.7 15-8.4 28.5 5.5 32.2 5.5 32.2-10.3 11.9-11.9 20.5c-.8 4.3-.6 9.1 4.8 16 5.6 7.1 10.7 10.6 13.1 11.3 4.8 1.2 8-.9 11.1-2.6s7.3-2.9 4.7-3.8c-8.2-.7-17.8-16.7-15.4-20.5s9.1-15.1 9.1-15.1h16.1s-18-21.2-17.8-27.3 12.5-28.5 12.5-28.5m88.5 0s-7.2 15.4-4.8 27.9 18.9 27.9 18.9 27.9-1.4 12.5 0 19.9 5.9 23.6 17.2 26.1 20.4-10.4 20.4-10.4H290s-7.9-10.2-6.7-17.8c1.2-7.6 15.4-17.8 15.4-17.8h13.6s-9-9.5-17-9.2c-8 .2-16.4 7.3-16.4 7.3s-5.1-9.3-6.5-11.1c-1.4-1.8-7.3-19.4-5.9-25.8s9.3-17 9.3-17m33.6 21.2l33.4 34.6s-.7 1.8-3.6 7.7-3.8 8.8-1.3 10.1 9.9-6 13.1-10.1 6.1-7.7 6.1-7.7h45.1s-15.7-10.5-26.8-11.1c-11.1-.6-21.8-1.1-21.8-1.1l-17.5-30.1"/></svg>