<svg version="1.1" id="Layer_2" xmlns="http://www.w3.org/2000/svg" x="0" y="0" viewBox="0 0 512 512" style="enable-background:new 0 0 512 512" xml:space="preserve"><style type="text/css">.st0{fill:#ff3c3c}.st1,.st2{opacity:.8;fill:#fff}.st2{opacity:.2}.st3{fill:#41a041}.st4{fill:#d5af16}.st5{fill:#292995}</style><path class="st0" d="M123 123h124v124H123z"/><path class="st0" d="M0 0h185v185H0z"/><path class="st0" d="M123 247 0 185h185V0l62 123"/><path class="st1" d="M185 183.6V0H0v185h183.6l62.4 62h1v-1l-62-62.4zM2 2h181v181H2V2z"/><path class="st2" d="M123 124.4 0 1V0h1l123.4 123H183v2h-58v58h-2v-58.6zm62-1.4v2h60v120H125v-60h-2v62h124V123h-62z"/><path transform="rotate(-180 327 185)" class="st3" d="M265 123h124v124H265z"/><path transform="rotate(-180 419.5 92.5)" class="st3" d="M327 0h185v185H327z"/><path class="st3" d="m389 247 123-62H327V0l-62 123"/><path class="st1" d="M265 246v1h1l62.4-62H512V0H327v183.6L265 246zm245-63H329V2h181v181z"/><path class="st2" d="M389 183h-2v-58h-58v-2h58.6L511 0h1v1L389 124.4V183zm-124-60v124h124v-62h-2v60H267V125h60v-2h-62z"/><path class="st4" d="M123 265h124v124H123z"/><path class="st4" d="M0 327h185v185H0z"/><path class="st4" d="M123 265 0 327h185v185l62-123"/><path class="st1" d="M247 266v-1h-1l-62.4 62H0v185h185V328.4l62-62.4zM2 329h181v181H2V329z"/><path class="st2" d="M123 329h2v58h58v2h-58.6L1 512H0v-1l123-123.4V329zm124 60V265H123v62h2v-60h120v120h-60v2h62z"/><path transform="rotate(180 327 327)" class="st5" d="M265 265h124v124H265z"/><path transform="rotate(180 419.5 419.5)" class="st5" d="M327 327h185v185H327z"/><path class="st5" d="m389 265 123 62H327v185l-62-123"/><path class="st1" d="M327 328.4V512h185V327H328.4L266 265h-1v1l62 62.4zM510 510H329V329h181v181z"/><path class="st2" d="M389 387.6 512 511v1h-1L387.6 389H329v-2h58v-58h2v58.6zm-62 1.4v-2h-60V267h120v60h2v-62H265v124h62z"/></svg>