<svg version="1.1" id="icon" xmlns="http://www.w3.org/2000/svg" x="0" y="0" viewBox="0 0 512 208.3" xml:space="preserve"><style type="text/css">.st3{fill:#525355}</style><path d="M488.9 5c-14.3-5.5-27.2-6.6-28.8-2.5 0 .1 0 .1-.1.2v.1c-.1.4-.1.8 0 1.2 0 0 1.3 8.5-.2 12.3l-61.9 160.9c-4.4 11.8 1.5 25 13.3 29.5s25-1.3 29.7-13.1l61.9-160.9c1.2-3.2 8.1-9.3 8.1-9.3.3-.3.6-.6.8-.9v-.1c0-.1.1-.1.1-.2 1.7-3.9-8.6-11.8-22.9-17.2zM502 19.1c-.9 2.3-8.8 1.4-17.7-1.9-8.9-3.4-15.3-8.1-14.4-10.4s8.8-1.4 17.7 1.9c8.8 3.3 15.2 8 14.4 10.4z" fill="#d2d2d2"/><path d="M479.5 75.6l-44.6 116c-3.3 8.3-12.9 12.7-21.3 9.4-8.5-3.3-13.1-13.1-10-21.4l28.5-74.1s3.6-5.7 10.5-9.8c6.9-4.1 12.8-3.3 20.5-6.6 7.9-3.6 16.4-13.5 16.4-13.5z" fill="#be0000"/><path d="M441.9 107.1c.4.9 0 1.9-.9 2.3-.9.4-1.9 0-2.3-.9-.4-.9 0-1.9.9-2.3.7-.4 1.8 0 2.3.9zm12.5 12.6c.6 1.3 0 3-1.3 3.6-1.3.6-3 0-3.6-1.3-.6-1.3 0-3 1.3-3.6 1.4-.7 3-.1 3.6 1.3zm-15.8 14.5c1.1 2.6 0 5.5-2.6 6.7-2.6 1.1-5.5 0-6.7-2.6-1.1-2.6 0-5.5 2.6-6.7 2.6-1.1 5.6 0 6.7 2.6zm-10.3 10.4c.6 1.3 0 3-1.3 3.6-1.3.6-3 0-3.6-1.3-.6-1.3 0-3 1.3-3.6 1.3-.8 3-.1 3.6 1.3zm9.9 20.4c.4.9 0 1.9-.9 2.3-.9.4-1.9 0-2.3-.9-.4-.9 0-1.9.9-2.3.9-.4 1.9 0 2.3.9z" opacity=".5" fill="#fff"/><path class="st3" d="M111.2 103.2c-.7 0-2 1.3-.9 1.8 1.4.5 2.1 1.8 2.1 3.7-1.3 7.5-10.6 16-14.3 19-.9.9.4 3 1.3 2.1 2-1.6 6.2-4.9 9.7-9.3-5.6 12.6-16.6 28.8-20.8 34.5-16.4 22.8-41.5 43.8-58.6 43.8-13.7 0-25.4-9.3-28-23-.2-1.4-2.1-1.8-1.8.2C3 194.9 17.5 202.3 35 202.3c19.2 0 41.7-13.9 54.1-28.1 20-23 33.1-49.4 29.6-64.4-1.5-5.8-5.3-6.7-7.5-6.6zm8.1-7c2.8 2.1 7.7.9 10.9-2.8 3.5-3.9 4-8.8 1.3-10.9-2.8-2.1-7.7-.9-10.9 3-3.6 3.7-4.1 8.4-1.3 10.7zm316.5-28.8c3.9-6.5 3.7-11.6-5.3-11.6-6.7.2-19 4.9-24.7 9.3-1.3 1.3-.7 2 .9 1.3 1.1-.4 2.3-1.1 3.7-1.6 6.4-3.5 3.9 3.9 2.3 6.5-7.7 13.4-21.2 32.2-28.3 41.5-3.4 4.6-7.3 9.2-10.9 13.1-6.8 6.5-20.4 18.1-30.6 22-33.3 12.5 9.1-44.2 12.6-48.7 7.9-9.9 25.4-27.1 30.7-35.6 3.9-6.5 3.7-11.6-5.3-11.6-6.7.2-19 4.9-24.7 9.3-1.3 1.3-.7 2 .9 1.3 1.1-.4 2.3-1.1 3.7-1.6 6.4-3.5 3.9 3.9 2.3 6.5-7.7 13.4-21.2 32.2-28.3 41.5-5.8 7.9-13 15.7-18.5 20.1-2.1 1.8-.9 3.5 1.3 2 2-1.3 4.9-4.2 8.3-7.7-6 12.1-10.9 29 4.9 31 13.6 1.8 29.6-11.9 40-22.3 1.1-1.1 2.5-2.3 3.8-3.8l.9-.9c-6 12.1-10.9 29 5 30.9 17.4 2.3 38.9-21 47.3-29.6 1.6-1.6 1.1-4.4-1.6-1.6-4.9 5.1-21.5 20.2-33.6 24.8-33.3 12.5 9.1-44.2 12.6-48.7 7.8-10.1 25.3-27.2 30.6-35.8zm-201.2 86c5.3-1.3 9.7-4.3 9.7-8.8 0-.4-.9-.4-.9 0 0 2.8-3.1 5-6.5 5.5-8.3 1.3-24.5-8.4-32.2-18.2 8.3 3.1 25-1.4 32.9-7.1 7.4-5.3 10.2-11.1 10.8-15.8.9-7.9-7.7-12.5-19.5-7.9-7.7 3.1-16.8 9.9-26.3 22.5 10-16.6 29.8-43.6 49.1-61 23.6-21 37.3-17 16 5.3-8.8 9.1-25.2 21-36.6 26.1-3.5 1.4-1.8 3.5.7 2.3 12.1-5.3 28.2-16.2 37.8-25.4 28.7-27.6 4.8-48.4-27.1-19.2-21.5 19.9-35.6 40.7-47.9 67.7-4.2 5.1-7.4 9.3-11.1 12.6l-1.1 1.1c-10.5 9.1-27.2 21.2-37.4 21.4-7.4.2-10.4-5.3-9.1-12.5 2-11.1 13.5-24.3 23.4-28.8 12.8-5.8 20.3 5.5 3.5 14.6-6.4 3.3-14.1 5.1-17.2 5.1-3.7 0-3.3 1.4-.2 1.6 5.1.2 13.4-2 18.8-4.6 17.2-8.2 18.3-23.6-.4-24.1-20.3-.7-44.6 16.6-44.4 38.3.2 9.9 8.1 15.1 18.8 15.1 18-.2 34-13.8 47.1-25.8 1.8-1.5 3.7-3.3 5.5-5.1-4.6 11.6-6.9 22.5-5.8 30.5.7 5.8 4 8.6 6.5 10.7.5.4 1.6 0 .9-1.1-3.9-4.6-2.8-18.1 2.6-31.2 4.4 9 21.6 20.1 39.6 16.2zm-21.7-38.1c21-18.8 29.2-2 15.9 8.2-6.9 5.3-20.6 9.3-25 6.7l-.9-.5c-.5-.9-1.1-1.8-1.4-2.8 3.4-4.2 7.4-8.1 11.4-11.6z"/><path class="st3" d="M329.6 93.9c8.4.9 4.9-9.3-3.7-6.7-3.9 1.1-7.5 8.4-10.2 14.8-8.4 12.6-22.5 29.7-32.4 38.7-8.8 7.5-16.8 9.5-6.9-4.6 4-5.6 9.1-11.6 12-17.7 6.9-15.1-7.9-22-19.7-12.8-6.9 5.3-16.2 16.2-23.6 22.3-2 1.6-1.4 4 .5 2.3 5.8-4.7 16-15.5 24.8-22 7.4-5.6 10.2-2 6 2.8-5.8 6.7-16 18.5-18.7 25.9-3.7 11.1.7 16 8.1 16 10 0 25-15.7 35.1-28.1 3.3-4.2 6.9-9.1 10-13.9-8.8 17-17.9 34.1-29.2 49.6-16 22-36.2 38.3-55.1 38.3-13.7 0-25.6-9.3-28.2-23-.2-1.4-2-1.8-1.8.2 3.1 18.8 17.6 26.1 35.1 26.1 19.2 0 37.7-11.1 50.7-24.8 26.1-27.6 29.2-58.6 37.3-76 3.7-7.4 7.2-7.8 9.9-7.4z"/></svg>