<svg xmlns="http://www.w3.org/2000/svg" viewBox="0 0 512 512" xml:space="preserve"><style>.st1{fill:#d7d7d7}.st16{fill:#4b4c4c}.st18{fill:#7d828d}</style><path fill="#f2f2f2" d="M40 504V8h276.7L408 99.3V504z"/><path class="st1" d="m313.4 16 86.6 86.6V496H48V16h265.4M320 0H32v512h384V96L320 0z"/><path class="st1" d="M416 96h-96V0h-16v112h112z"/><path d="M48 64h256v31H48zm0 64h352v32H48z" fill="#dee8eb"/><path fill="#accfa7" d="M48 472h352v24H48z"/><path fill="#1c881b" d="M48 436h352v36H48z"/><path fill="#43a72d" d="M48 412h352v36H48z"/><path fill="#5bb734" d="M48 388h352v36H48z"/><path fill="#6ac239" d="M48 364h352v36H48z"/><path fill="#7dcb3d" d="M48 340h352v36H48z"/><path fill="#93d543" d="M48 316h352v36H48z"/><path fill="#ace04a" d="M48 292h352v36H48z"/><path fill="#c0e94f" d="M48 268h352v36H48z"/><path fill="#c6ec50" d="M48 245h352v35H48z"/><path fill="#d4f255" d="M48 220h352v36H48z"/><path fill="#ddf581" d="M48 196h352v36H48z"/><path fill="#e1f594" d="M48 184h352v24H48z"/><path class="st16" d="M128 320h-16V159l.2-1c2.8-11.1 12.7-30 31.8-30s29 18.9 31.8 30.1l.2 1v129h-16v-127c-1.1-3.5-6-17.1-16-17.1s-14.9 13.6-16 17.1V320zm80-112h48v16h-48z"/><path class="st16" d="M224 240v-48h16v48zm48-32h48v16h-48z"/><path class="st16" d="M288 240v-48h16v48z"/><path fill="#e1ab07" d="m274.253 380.025 135.233-290.02 43.503 20.284L317.756 400.31z"/><path class="st18" d="m409.416 89.953 13.523-29.002 43.503 20.285-13.523 29.002z"/><path fill="#d07b84" d="m422.93 60.974 13.524-29.002 43.503 20.285-13.523 29.002z"/><path class="st18" d="m317.7 400.3-42 33.4-1.5-53.7z"/></svg>