<svg version="1.1" id="icon" xmlns="http://www.w3.org/2000/svg" x="0" y="0" viewBox="0 0 512 512" style="enable-background:new 0 0 512 512" xml:space="preserve"><style type="text/css">.st0{fill:#292995}.st1{opacity:.5;fill:none;stroke:#fff;stroke-width:2;stroke-linecap:round;stroke-linejoin:round;stroke-miterlimit:10;enable-background:new}.st2{fill:#d5af16}.st3{fill:#41a041}.st4{fill:#ff3c3c}</style><path class="st0" d="M312 267v218.3L505 459l7-204.5zm0 218.3L233 406V231l79 36z"/><path class="st0" d="m312 267-79-36 182-7 97 30.5z"/><path class="st1" d="M476.7 256.7 312 267v199.4"/><path class="st2" d="m59 502-4-224 219-15v212z"/><path class="st2" d="m59 502-41-69-5-192 42 37z"/><path class="st2" d="m55 278-42-37 195-10 66 32z"/><path class="st1" d="M58.6 479.6 55 278l191.1-13.1"/><path class="st3" d="M296.1 237.1 246 221.3 242 10h55z"/><path class="st3" d="m296 10-.3 227.3 193-10L495.2 10z"/><path class="st1" d="m296 20.3-.3 203.7"/><path class="st4" d="M51.9 250.3 47 10h225v229.3z"/><path class="st4" d="m52 250.3-46-32L0 10h47.1z"/><path class="st1" d="m51.6 236.3-4.4-216"/></svg>