<svg xmlns="http://www.w3.org/2000/svg" viewBox="0 0 512 76" style="enable-background:new 0 0 512 76" xml:space="preserve"><path d="M115 13h9v63h-9V13zm85 0h9v63h-7.8L158 28.6V76h-9V13h7.8L200 60.4V13zM88.7 0 70.9 60.4 52.4 0h-5.8L28.1 60.4 10.3 0H0l23.3 76h8.1l-.1-.1.2.1 18.1-58.4 18 58.4.2-.1-.1.1h8.1L99 0H88.7zM293 24.4c0-6.3-5.1-11.4-11.4-11.4h-39.2c-6.3 0-11.4 5.1-11.4 11.4v40.2c0 6.3 5.1 11.4 11.4 11.4h39.2c6.3 0 11.4-5.1 11.4-11.4V41h-31v8h22v18h-42V22h42v8.3l9-1.9v-4z" style="fill:#c2b6d3"/><path d="M377.1 17 366 30.2V40h-4v-9.8L351.4 17h4.2l8.6 10.3 8.6-10.3h4.3zm28.9 0v4h-11v19h-4V21h-10v-4h25zm33 0v23h-4V29.5h-18V40h-4V17h4v9.4h18V17h4zM318 49h4v27h-4V49zm82.1 23H383v-8h20.1l1.5-4H383v-7h24l1.5-4H379v27h19.6l1.5-4zM353 49h-17v27h17c7.5 0 13.5-6 13.5-13.5S360.5 49 353 49zm0 23h-13V53h13c5.2 0 9.5 4.3 9.5 9.5S358.2 72 353 72zm-12.9-59H318v27h4V29h18.1c2.7 0 4.9-2.3 4.9-5.1v-6.1c0-2.6-2.2-4.8-4.9-4.8zm.9 10c0 1.1-.9 2-2 2h-17v-8h17c1.1 0 2 .9 2 2v4zm167-6h4v23h-3.4L490 22.7V40h-4V17h3.4L508 34.3V17zm-36.8 0h-17.4c-2.6 0-4.8 1.8-4.8 4.1v14.8c0 2.3 2.1 4.1 4.8 4.1h17.4c2.6 0 4.8-1.8 4.8-4.1V21.1c0-2.3-2.1-4.1-4.8-4.1zm.8 19h-19V21h19v15z" style="fill:#9dd790"/></svg>