<svg version="1.1" xmlns="http://www.w3.org/2000/svg" x="0" y="0" viewBox="0 0 512 512" xml:space="preserve"><radialGradient id="a" cx="63.94" cy="348.652" r="377.966" gradientUnits="userSpaceOnUse"><stop offset="0" stop-color="#0a3284"/><stop offset="1" stop-color="#0098da"/></radialGradient><path d="M486.4 256l-185.2-51.4c-39.9-15.8-100.6-7.6-134.8 18.3L22.3 323.1C-12 349-5.8 373.4 34.1 389.2l166.2 83.5c39.9 15.8 89.1 2.9 123.3-23l157.6-115.8c34.3-25.9 45.2-62.1 5.2-77.9z" fill="url(#a)"/><radialGradient id="b" cx="58.15" cy="303.291" r="350.821" gradientUnits="userSpaceOnUse"><stop offset="0" stop-color="#bf0826"/><stop offset="1" stop-color="#e0001b"/></radialGradient><path d="M486.4 207.7l-185.2-51.4c-39.9-15.8-100.6-7.6-134.8 18.3L22.3 274.9C-12 300.8-5.8 325.2 34.1 341l166.2 83.5c39.9 15.8 89.1 2.9 123.3-23l157.6-115.8c34.3-26 45.2-62.2 5.2-78z" fill="url(#b)"/><path d="M486.4 149.8L301.2 98.4c-39.9-15.8-100.6-7.6-134.8 18.3L22.3 216.9C-12 242.8-5.8 267.2 34.1 283l166.2 83.5c39.9 15.8 89.1 2.9 123.3-23l157.6-115.8c34.3-25.9 45.2-62.1 5.2-77.9z" fill="#f8d500"/><radialGradient id="c" cx="248.279" cy="302.326" r="206.836" gradientUnits="userSpaceOnUse"><stop offset="0" stop-color="#2e922b"/><stop offset="1" stop-color="#96bf0d"/></radialGradient><path d="M486.4 91.9L301.2 40.5c-39.9-15.8-100.6-7.6-134.8 18.3L22.3 159c-34.3 25.9-28.1 50.3 11.8 66.1l166.2 83.5c39.9 15.8 89.1 2.9 123.3-23l157.6-115.8c34.3-25.9 45.2-62.1 5.2-77.9z" fill="url(#c)"/></svg>