<svg version="1.1" xmlns="http://www.w3.org/2000/svg" x="0" y="0" viewBox="0 0 512 130.9" xml:space="preserve"><path d="M45.2 65.9H15.1L0 92l15.1 26.1h30.1L60.3 92 45.2 65.9zm55.4-29.3H70.4l-15 26.1 15 26.1h30.2l15-26.1-15-26.1zM69.3 26.5l-8.2-14.2H30.9l-15 26.1 9.9 17.1h21.7l16.7-29h5.1z" fill="#81ade5"/><path d="M168.2 0l-3.6 26.6h15.9c7 0 12.5.9 16.6 2.6 4 1.7 7.3 4.6 9.8 8.7 2.1 3.4 3.5 7.1 4.2 11.1.7 4.1.7 8.5.1 13.4-1.6 11.8-5.8 21-12.8 27.7-6.9 6.6-15.8 10-26.5 10h-35.7L149.7 0h18.5zm5.6 42.4h-11.3l-5.6 41.8h12.8c7.1 0 12.2-1.6 15.5-4.7s5.4-8.4 6.4-15.8c1-7.7.2-13.1-2.5-16.4-2.7-3.2-7.8-4.9-15.3-4.9zm121.4 20.9c-1.5 11.5-6.1 20.7-13.8 27.6-7.6 6.9-17.1 10.3-28.5 10.3s-20-3.4-25.8-10.3-8-16.1-6.4-27.5c1.5-11.5 6.2-20.7 13.9-27.7 7.7-6.9 17.2-10.4 28.6-10.4 11.3 0 19.8 3.5 25.6 10.4 5.8 6.9 7.9 16.1 6.4 27.6zm-55.1 0c-.9 7-.1 12.4 2.5 16.3s6.7 5.8 12.3 5.8c5.6 0 10.2-1.9 13.9-5.8s6-9.3 6.9-16.3.1-12.4-2.5-16.3-6.7-5.8-12.3-5.8c-5.6 0-10.2 2-13.8 5.8-3.8 4-6.1 9.4-7 16.3zm141.1 0c-1.5 11.5-6.1 20.7-13.8 27.6-7.6 6.9-17.1 10.3-28.5 10.3s-20-3.4-25.8-10.3-8-16.1-6.4-27.5c1.5-11.5 6.2-20.7 13.9-27.7 7.7-6.9 17.2-10.4 28.6-10.4 11.3 0 19.8 3.5 25.6 10.4 5.8 6.9 7.9 16.1 6.4 27.6zm-55.1 0c-.9 7-.1 12.4 2.5 16.3s6.7 5.8 12.3 5.8c5.6 0 10.2-1.9 13.9-5.8 3.7-3.9 6-9.3 6.9-16.3s.1-12.4-2.5-16.3-6.7-5.8-12.3-5.8c-5.6 0-10.2 2-13.8 5.8-3.7 4-6 9.4-7 16.3zm60.5 21.4h39.1c3.5 0 6.1-.6 7.8-1.7 1.7-1.1 2.8-2.9 3.1-5.4.3-2.5-.2-4.3-1.7-5.5-1.4-1.2-3.9-1.7-7.3-1.7h-16c-9.5 0-15.7-1.5-18.6-4.6-2.9-3-3.9-8.4-2.8-16.2 1.1-7.9 3.9-13.7 8.4-17.4 4.5-3.7 11-5.6 19.5-5.6h39.8l-2.1 15.3H423c-5.3 0-8.9.5-10.6 1.5s-2.8 2.7-3.1 5.2c-.3 2.3.2 3.9 1.4 5 1.3 1.1 3.4 1.6 6.5 1.6H434c7.7 0 13.3 1.9 16.8 5.6s4.8 9.1 3.9 16.2c-.9 6.8-3.4 12.3-7.6 16.6-4.2 4.3-9 6.4-14.7 6.4h-47.9l2.1-15.3zm79.1-58.1h11.1L480.4 0h18.5l-3.6 26.6H512l-2 14.6h-16.6l-4 29.7c-.7 5.4-.4 9.2 1.1 11.3 1.5 2.1 4.5 3.2 8.9 3.2h4.7l-2 14.6h-14c-6.9 0-11.8-2-14.9-6s-4.2-9.6-3.2-17l4.8-35.8h-11.1l2-14.6zM141 118.8c-1.3 0-2.2.4-2.9 1.2-.7.8-1.1 2.1-1.4 4-.2 1.6-.1 2.7.3 3.4.4.7 1.3 1 2.6 1h5l-.4 2.5H139c-1.1 0-2-.1-2.7-.3-.6-.2-1.2-.5-1.7-1-.7-.6-1.1-1.4-1.4-2.3-.2-1-.3-2.2-.1-3.5.4-2.6 1.2-4.5 2.5-5.7s3.1-1.8 5.4-1.8h5.1l-.3 2.5H141zm27.5 0h2l-.7 5h4.9l-.3 2h-4.9l-.7 5.1h-2l.7-5.1h-4.9l.3-2h4.9l.7-5zm29.2 0h2l-.7 5h4.9l-.3 2h-4.9l-.7 5.1h-2l.7-5.1h-4.9l.3-2h4.9l.7-5zm54.3 12.1c-1.4 0-2.4-.1-3-.3s-1.2-.6-1.6-1.2c-.4-.5-.7-1.1-.8-1.7-.1-.6-.1-1.5.1-2.7l1.2-8.7h3.1l-1.2 8.6c-.1.9-.2 1.4-.1 1.8 0 .3.1.6.3.8.2.3.6.6 1 .7.4.1 1 .2 1.7.2h3.6l-.3 2.5h-4zm27.9 0h-3.2l2-14.6h3.2l-2 14.6zm27.2 0h-8l2-14.6h7.5c.9 0 1.7.1 2.3.2.6.1 1 .3 1.4.5.5.3.8.8 1 1.3s.3 1.1.2 1.8c-.1.8-.4 1.5-.8 2.1s-1 1-1.8 1.4c.7.3 1.2.7 1.5 1.3.3.5.4 1.2.3 2-.2 1.4-.7 2.4-1.6 3-1 .7-2.3 1-4 1zm-.1-2.6c.7 0 1.2-.1 1.6-.4s.6-.7.7-1.3c.1-.6 0-1-.3-1.3s-.8-.4-1.5-.4H303l-.5 3.4h4.5zm-3.2-9.3l-.5 3.4h4.5c.7 0 1.2-.1 1.6-.4s.6-.7.7-1.3c.1-.6 0-1-.3-1.3s-.8-.4-1.5-.4h-4.5zm28.9-2.7h7.5c1.8 0 3 .4 3.7 1.1s1 1.8.8 3.3c-.2 1.1-.5 2-1.1 2.7s-1.4 1.2-2.4 1.4l2.8 6.1h-3.4l-2.4-5.7h-3.6l-.8 5.7h-3.1l2-14.6zm6.4 2.6h-3.7l-.5 3.7h3.8c1 0 1.7-.1 2.2-.4.4-.3.7-.8.8-1.4.1-.7 0-1.1-.4-1.4-.5-.3-1.2-.5-2.2-.5zm30.1-2.6h3.2l4.2 14.6h-3.4l-.8-3.5h-6.3l-1.8 3.5h-3.2l8.1-14.6zm1.1 2.9l-2.9 5.6h4.3l-1.4-5.6zm25.6-2.9h7.5c1.8 0 3 .4 3.7 1.1s1 1.8.8 3.3c-.2 1.1-.5 2-1.1 2.7s-1.4 1.2-2.4 1.4l2.8 6.1h-3.4l-2.4-5.7h-3.6l-.8 5.7h-3.1l2-14.6zm6.5 2.6h-3.8l-.5 3.7h3.8c1 0 1.7-.1 2.2-.4.4-.3.7-.8.8-1.4.1-.7 0-1.1-.4-1.4s-1.1-.5-2.1-.5zm27.1 12h-3.2l2-14.6h3.2l-2 14.6zm26.9-11.9c-1.1 0-2 .3-2.6.8-.6.6-1.1 1.4-1.3 2.5h8.5l-.4 2.5h-8.5c-.2 1.3 0 2.2.4 2.7.5.6 1.3.8 2.5.8h5l-.4 2.6h-5.2c-1.1 0-2-.1-2.6-.3s-1.2-.5-1.7-1c-.7-.6-1.1-1.4-1.4-2.3-.2-1-.3-2.1-.1-3.4.4-2.6 1.2-4.6 2.5-5.8s3.1-1.8 5.4-1.8h5.1l-.2 2.7h-5zm38.2-.1H487c-.8 0-1.4.2-1.9.5-.4.3-.7.8-.8 1.4-.1.5 0 .9.3 1.2.3.3.7.4 1.4.4h4c1.7 0 2.8.3 3.4 1 .6.6.8 1.6.6 3.1-.2 1.5-.8 2.6-1.7 3.3-.9.7-2.3 1.1-4 1.1h-7.9l.4-2.5h7.7c.9 0 1.5-.1 1.9-.4.4-.3.6-.7.7-1.3.1-.6 0-1-.3-1.3s-.8-.4-1.6-.4h-3.6c-1.7 0-2.9-.3-3.5-1-.7-.7-.9-1.7-.7-3.2.2-1.5.8-2.7 1.7-3.4.9-.7 2.3-1.1 4-1.1h8l-.5 2.6z" fill="#4a6484"/></svg>