<svg version="1.1" xmlns="http://www.w3.org/2000/svg" x="0" y="0" viewBox="0 0 512 512" xml:space="preserve"><path d="M284 244h24v-16h16v-24h-16v-16h-24v16h-16v24h16v16zm-8-24v-8h16v-16h8v16h16v8h-16v16h-8v-16h-16zm-132-96c-21.6 0-32.6 20.8-35.7 33l-.3 1.6V324h24V161.7c1-2.9 5.1-13.7 12-13.7s11 10.9 12 13.7v130.4h24V158.7l-.3-1.6c-3.1-12.3-14.1-33.1-35.7-33.1zm28 160.1h-8V160.5l-.2-.6c-1.5-4.7-7.2-19.9-19.8-19.9s-18.3 15.2-19.8 19.9l-.2.6V316h-8V159.4l.1-.5c2.6-10 11.3-26.9 27.9-26.9 16.6 0 25.4 16.9 27.9 27l.1.5v124.6zm72-96.1h-24v16h-16v24h16v16h24v-16h16v-24h-16v-16zm8 24v8h-16v16h-8v-16h-16v-8h16v-16h8v16h16zM485.4 50.4l-50.8-23.7-28 60L320 0H32v512h384V199.1l69.4-148.7zM310.2 401.2l-30.7 24.4-1.1-39.2 31.8 14.8zm5.6-6.2l-36.3-16.9L411.4 95.3l36.3 16.9L315.8 395zM461.2 83.2L451.1 105l-36.3-16.9 10.1-21.8 36.3 16.9zm-22.7-45.9l36.3 16.9L464.6 76l-36.3-16.9 10.2-21.8zM319.8 11.1L403 94.4l-.9 1.9h-82.6l.3-85.2zM408 504H40V8h271.8l-.3 96.3h86.9l-127.8 274-.4.9 1.7 62.6 49.1-39 87-186.6V504z" fill="#36434f"/></svg>