<svg version="1.1" xmlns="http://www.w3.org/2000/svg" x="0" y="0" viewBox="0 0 512 512" xml:space="preserve"><path d="M290.4 135.9c2.8-6.8 10.6-10 17.4-7.2s10 10.6 7.2 17.4c-2.8 6.8-10.6 10-17.4 7.2s-10-10.6-7.2-17.4zm154.7 5.2c7.3 0 13.3-6 13.3-13.3s-6-13.3-13.3-13.3-13.3 6-13.3 13.3 6 13.3 13.3 13.3zm67 171.5l-26.4 5.3-16.9 3.4-1.1.2-44.4 8.9h-19.6s-11.1 15.8-32.4 17.9c-20.8 2-32.4-15.3-32.4-17.9h-33.6s-9 13-20.4 10.4c-5.4-1.2-9.2-5.5-11.9-10.4H160.4c2.6.9-1.6 2.1-4.7 3.8-3.1 1.7-6.3 3.8-11.1 2.6-1.8-.4-5.1-2.5-8.9-6.4H98.4c7.9 49.6 50.2 107.4 85.4 114.8 30.8 6.4 36.5-15.4 39.1-29.5 2.5-14.1-13.5-43-27.6-44.9-14.1-2-22.4 5.1-23.7 12.8-1.2 7.7 6.5 14.7 14.8 14.1 8.3-.7 6.4-10.3 6.4-10.3s8.3-5.1 9.6 5.8-11.3 18.6-22.8 18c-11.5-.7-26.6-14.8-26.6-27.6s8.7-31.7 38.5-30.1c29.9 1.7 51.8 46 47.5 69-3.1 13.4-16.7 41.4-54.5 41.4-28.2 0-48.1-20.2-63.2-36.2-14.4-15.3-38.5-56.1-44.5-97.2H4.3s-4.3-9-4.3-17.8 4.3-17.8 4.3-17.8h70.2c-.1-27.1 4.3-48.5 12-73.4 10.2-33.3 46.8-116.7 112.2-112.2 22.6 1.5 42.9 7.4 60.6 14.6-1.8-39.6 17.6-73.2 46.7-77.9 15.8-2.5 32 3.7 45.5 17.6 9.6 9.7 17.1 22.5 21.8 36.9 26.1-29.9 63.4-40.2 86.6-23.3 25.2 18.4 24.6 62.3-1.3 97.7-8.3 11.4-18.4 20.8-29.4 27.6 9.3 12.7 15.9 24.8 15.9 24.8s-32.1 26.9-66.8 34c-23.7 2.1-39.8-4.5-39.8-4.5l15.1 26s10.7.5 21.8 1.1c11.1.6 26.8 11.1 26.8 11.1h21l44.4 8.9 44.5 8.7zM133.3 257c.5-9 4.1-18.8 6.4-24.2-.9-1-1.3-1.6-1.3-1.6s-30.8 22.1-39.1 63.8h35c2.4-3.4 4.5-5.8 4.5-5.8s-6.3-18.7-5.5-32.2zm51.9 8.5c-10.5-4.1-19.2-9.4-26.2-14.6-3.2 6.5-6.4 13.8-6.5 16.8-.2 6.1 17.8 27.3 17.8 27.3h2.6c4.6-4.6 10.8-11 12.1-14.1 1.4-3.3.8-10.6.2-15.4zm193.9-130.9v5c0 1 0 2-.1 3 0 .4-.1.9-.1 1.3-.1.8-.1 1.6-.2 2.4 0 .3-.1.7-.1 1-.1 1.1-.3 2.2-.4 3.3 0 .2-.1.4-.1.6-.7 5.5-1.9 10.9-3.5 15.9 11 2.1 21.5 5 29.4 9.6 7.6 4.4 15.5 13 22.3 21.8 10.6-6.4 20.3-15.5 28.4-26.5 24.2-33.2 25.3-73.9 2.3-90.7-21.7-15.9-57.5-4.9-82.1 25 .3 1 .6 2 .8 3l.6 2.4.3 1.5c.2.5.3 1.1.4 1.7.2 1.2.4 2.3.6 3.5s.3 2.5.5 3.7c0 .4.1.7.1 1 .2 1.2.3 2.3.4 3.5.1.3.1.6.1.9.1.9.1 1.8.2 2.7.1.4.1.9.1 1.3 0 1 .1 2.1.1 3.1zm-113.6 1.6c6.3 39.5 32.4 68.7 59.8 68.7 2 0 4.1-.2 6.1-.5 9.1-1.4 17-6 23.6-12.9l.5-.5c.9-1 1.8-2 2.7-3.1l.1-.1c1.2-1.5 2.3-3.1 3.4-4.8.1-.2.3-.4.4-.6l.9-1.5c.2-.2.3-.5.5-.8.5-.7.9-1.5 1.3-2.3l.6-1.2c.2-.4.4-.9.6-1.3.2-.5.4-.9.6-1.4.3-.6.5-1.2.8-1.8.3-.5.5-1.1.7-1.6s.3-.9.5-1.4.3-.9.5-1.4l.6-1.8c.2-.6.4-1.2.6-1.9.2-.5.3-1.1.5-1.6.1-.4.2-.7.3-1.1.6-2 1-4 1.4-6.1 0-.3.1-.5.1-.8.4-2.1.8-4.4 1-6.6.1-.2.1-.4.1-.6.1-.7.1-1.4.2-2.2v-.3c.1-1.4.1-2.8.2-4.2v-7.1c-.1-.6-.1-1.2-.1-1.8 0-.5-.1-1-.1-1.5-.1-.9-.1-1.7-.2-2.6 0-.3-.1-.7-.1-1l-.3-3c0-.3-.1-.7-.1-1-.2-1.2-.3-2.3-.5-3.5-.2-1.1-.4-2.3-.6-3.4-.2-.7-.3-1.5-.5-2.2-.1-.3-.1-.7-.2-1-.2-1-.5-1.9-.7-2.9v-.1c-.2-1-.5-2.1-.8-3.1l-.4-1.2c-4.4-14.9-11.8-28.1-21.5-38-10.7-10.8-22.9-16.6-35.1-16.6-2 0-4.1.2-6.1.5-29.5 4.7-48.1 43-41.3 85.2zm2.2 158.8s-12.3-11.4-17.2-22.6c-5.7.5-11.7.8-17.8 1.1-10.3.4-19.8-.4-28.4-2.2.3 4.5.7 11.1.1 15.3-.3 2.5-1.1 5.6-1.9 8.4h65.2zm75 0l-30.4-31.5c-11.5 2.5-26.5 5.2-43.9 7.2 1.5 5.5 3.4 10.4 4.1 11.3 1.4 1.8 6.5 11.1 6.5 11.1s8.4-7.1 16.4-7.3c8-.3 17 9.2 17 9.2h30.3zm39.7 35.7h-29.1c2.5 2.2 7.2 3.3 15.2 3.3s13.9-3.4 13.9-3.3z" fill="#36434f"/></svg>