<svg version="1.1" xmlns="http://www.w3.org/2000/svg" x="0" y="0" viewBox="0 0 512 512" xml:space="preserve"><path d="M282.6 145.5v-.7c0-.8.1-1.6.2-2.4.1-.9.4-1.8.8-2.7 2-4.5 6.5-7.7 11.8-7.7 7.1 0 12.8 5.7 12.8 12.8 0 2.8-.9 5.4-2.4 7.5-.5.8-1.2 1.5-1.9 2.1-.7.7-1.6 1.3-2.5 1.8-1.8 1-3.8 1.5-6 1.5-6.8 0-12.4-5.4-12.8-12.2zm159.5-4.4c5-5 5-13.1 0-18.1-5-5-13.1-5-18.1 0-5 5-5 13.1 0 18.1 5 5 13.1 5 18.1 0zm70 169.7l-99.8 20h-17.8c-3.1 3.8-13.9 15.5-32.4 17.3-1.2.1-2.4.2-3.5.2-11.5 0-19.5-5.7-23.5-9.3-2.6-2.3-5.3-5.5-6.6-8.2h-29.1c-2.4 3-9.3 10.4-18.2 10.4-1.1 0-2.3-.1-3.5-.4-5.6-1.2-9.6-5.2-12.5-10H160.9c-.8.9-2.3 1.6-3.8 2.3-.7.4-1.5.7-2.2 1.1l-.8.4c-2.3 1.3-5 2.8-8.6 2.8-1.1 0-2.2-.1-3.4-.4-2.5-.7-5.7-2.9-9.1-6.2h-31.5c8.6 45.6 46.7 98.5 79.8 105.5 9.6 2 17.2 1.2 22.7-2.5 7.6-5.1 10.3-14.9 11.9-23.8 1.2-6.9-3.1-19.3-10-28.8-4.8-6.6-10-10.7-14.3-11.3-11.6-1.6-18.8 3.9-19.8 10.1-.3 2.4.5 4.8 2.3 6.8 2.2 2.5 5.7 3.9 9 3.6 1.4-.1 2.3-.5 2.9-1.3 1.2-1.6 1-4.4.8-5.3l-.4-1.9 1.6-1c.5-.3 4.7-2.8 8.7-.9 2.7 1.3 4.3 4.2 4.8 8.5.5 4.7-1 9.1-4.5 12.8-4.8 5.1-12.9 8.1-20.5 7.7-12.4-.7-28.4-15.1-28.4-29.5 0-4.1.9-14.5 9.5-22.7 7.2-6.8 17.5-9.9 30.6-9.2 11.5.6 23 7.5 32.4 19.5 12 15.2 18.7 36.5 16.1 50.5-4.6 19.6-21.9 42.3-55.5 42.3-29.3 0-49.7-21.6-63.1-35.9-14.4-15.3-37-54.3-43.4-93.1H5.2l-.8-1.6c-.2-.4-4.5-9.4-4.5-18.4s4.3-18 4.5-18.4l.8-1.6H72c.2-25.7 4.6-46.1 11.7-69 3.7-11.9 37.7-115.5 111.4-110.5 21.6 1.5 41 6.9 57.9 13.7-.5-37.1 18.1-68.1 45.6-72.5 27-4.3 53.8 18.3 65.3 52.4 25.2-28.5 61.2-38.6 83.8-22.1 12 8.8 18.4 23.7 18.1 41.8-.4 17.8-7.2 36.7-19.3 53.2-7.4 10.2-16.4 18.8-26.1 25.2 8.6 11.9 14.7 23.1 15.2 23.9l1.1 2-1.8 1.5c-1.2 1.1-32 26.6-65.8 33.5h-.3c-14.3 1.3-25.8-.6-32.7-2.3l10.2 17.6 19.6 1c10.2.5 23.6 8.7 26.7 10.7h19.9l99.6 19.8zM328.9 260c-3.1 1-9.5 2.7-18.5 4.8l25.1 26.1 2 2.1-.3.6-.4 1.1s-.2.5-.8 1.7c-.5 1.2-1.4 3.1-2.8 5.9-.5 1.1-1.9 4.1-2.3 5.6 2-1.1 6.1-4.7 9.1-8.5l2.3-2.9 2.2-2.8 2.2-2.8v-.1h34.6c-4.9-2.4-10.8-4.9-15.6-5.1l-22.6-1.2-14.2-24.5zm-36.3 36.5c-3.9 2.9-9.2 7.6-11.7 11.6h44.4c.2-2.6 1.6-5.6 2.9-8.2.6-1.3 1.2-2.5 1.6-3.4h-37.2zm35-5.5l-23.8-24.7c-7.7 1.6-16.7 3.3-27 4.8-3.5.5-7.1 1-11 1.5 1.1 3.4 2.1 6.1 2.6 6.9 1 1.2 3.4 5.3 5 8.2 3.3-2.2 9.1-5.5 14.9-5.7 7.5-.2 15.1 6.5 17.7 9h21.6zm38.1-179.6c1 3.8 1.9 7.6 2.5 11.6 2.6 15.8 1.6 31.2-2.2 44.5 10.7 2.1 20.9 5 28.7 9.5 7.7 4.5 15.6 13 22.3 21.7 9.3-6.1 17.8-14.3 25-24.1 11.4-15.6 17.9-33.4 18.2-50 .4-16.3-5.3-29.5-15.8-37.2-20.9-15.3-55.2-4.5-78.7 24zm-107.1 16.1c.1 1 .1 2.1.2 3.1.1 1.1.2 2.1.3 3.2.2 2.1.4 4.3.8 6.5 6.5 40.7 34.9 70.1 63.3 65.6 8.2-1.3 15.5-5.4 21.6-11.4.7-.7 1.3-1.4 2-2.1.6-.7 1.3-1.5 1.9-2.3 4.1-5.1 7.6-11.3 10.1-18.3l.9-2.7c.3-.9.5-1.8.8-2.7 3.7-12.7 4.6-27.4 2.2-42.7-.4-2.3-.8-4.6-1.3-6.8-.3-1.2-.6-2.3-.9-3.5-.3-1.2-.6-2.3-.9-3.4-9.2-30.8-31.3-52.4-54.3-52.4-1.9 0-3.9.2-5.8.5-25.4 4.1-42.2 34-40.9 69.4zM29.8 310.9c0-5.4 1.5-10.9 2.8-14.4H8.8c-1.1 2.7-3.2 8.7-3.2 14.4s2.1 11.6 3.2 14.4h23.8c-1.2-3.5-2.8-8.9-2.8-14.4zm13 0c0-3.4.6-6.8 1.4-9.8.4-1.7.9-3.3 1.4-4.6h-7c-1.1 2.7-3.2 8.7-3.2 14.4s2.1 11.6 3.2 14.4h7c-.4-1.3-.9-2.9-1.4-4.6-.8-2.9-1.4-6.4-1.4-9.8zm13 0c0-5.4 1.5-10.9 2.8-14.4h-7c-1.1 2.7-3.2 8.7-3.2 14.4s2.1 11.6 3.2 14.4h7c-1.2-3.5-2.8-8.9-2.8-14.4zm5.7-2.8h61.1c0-.2.1-.5.1-.7.7-3.5 2.7-7.4 4.8-10.9H64.6c-1 2.3-2.6 6.8-3.1 11.6zm67.3-51.3c.3-6.2 2.1-12.6 3.9-17.8-8.4 7.9-24.1 25.5-30.4 51.9h28.9c1-1.4 1.9-2.6 2.6-3.4-1.4-4.7-5.6-19.3-5-30.7zm-33.2 74H80.3c6.4 37.3 28 74.5 41.8 89.2 12.7 13.6 32.1 34.2 59 34.2 40 0 49.1-33.9 50-37.8 2.3-12.3-4.1-32.1-15-45.9-8.3-10.7-18.4-16.9-28.3-17.4-11.6-.6-20.5 2-26.5 7.7-7 6.7-7.8 15.3-7.8 18.7 0 10.9 13.6 23.4 23.1 23.9 6.1.4 12.4-2 16.1-5.9 1.6-1.7 3.4-4.5 3-8.3-.2-2.2-.9-3.7-1.7-4.1-.5-.2-1.2-.2-1.8 0 0 2-.3 5-2.1 7.4-1.1 1.4-3.2 3.2-6.9 3.5-5.1.4-10.1-1.6-13.6-5.4-2.9-3.3-4.3-7.5-3.6-11.5 1.5-8.9 10.9-16.8 26.1-14.7 5.9.8 12.3 5.6 18.1 13.6 6.5 9 12.7 23.2 10.9 33.1-1.8 10-4.9 21.1-14.2 27.4-6.7 4.6-15.8 5.7-26.9 3.4-18.9-4-40.9-22.6-58.9-49.8-13-19.9-22-41.6-25.5-61.3zm32.4-5.5l-.1-.1c-3.5-4.5-4.9-8.3-5.4-11.5H61.6c.5 4.7 2.2 9.3 3.1 11.6H128zm134.3 0c-1.7-4.1-2.7-8.3-3.4-11.6H146.7c.6 1.3 1.4 2.8 2.6 4.5 2.9 4.1 6.3 6.8 8.8 7.1h104.2zm-78.1-44c-1.1 2.3-4.3 6.1-7.7 9.7h19.9c.5-2.1 1-4.1 1.2-5.8.6-4.4.4-9.4.2-12.1-4.4-1-8.7-2.2-12.7-3.6.4 3.7.5 8.5-.9 11.8zm-5-14.2c-8.4-3.4-15.6-7.6-21.5-11.9-2.5 5.4-4.5 10.2-4.6 12.2-.1 2.8 7.9 14.1 15.7 23.5 4.6-4.7 9.3-9.8 10.3-12 1.2-2.6.7-8.1.1-11.8zM163 296.5h-9.5c-1.6 2.6-4.9 8.2-7 11.6H258c-.2-4.2.1-8.7.3-11.6H163zm40.2-10.6c-.2 1.6-.6 3.3-1 5h52.7c-3.6-3.9-8.6-9.9-11.7-16.1-5 .4-10.1.7-15.4.9-8.7.4-16.8-.2-24.3-1.5.2 3 .3 7.5-.3 11.7zm88.3 44.7h-9.7l-.8-1.1c-.1-.2-.6-.8-1.2-1.7-.5-.8-1.2-1.7-1.8-2.8-1.8-3.1-3.9-7.4-4.2-11.6 0-.9 0-1.9.1-2.8v-.4c.2-.8.4-1.6.7-2.4 1.6-4.1 5.6-8.4 9.1-11.6 1.2-1.1 2.3-2 3.3-2.8 1.5-1.2 2.6-2 3-2.3l.7-.5h6.4c-2.7-1.9-5.9-3.5-8.7-3.4-3.4.1-7 1.8-9.7 3.4-1.9 1.2-3.4 2.3-4 2.8l-.3.3-2.6 2.2-1.3-2.5-.3-.5c-.3-.7-.8-1.4-1.2-2.2-1.9-3.3-4.1-7.2-4.8-8-.8-1-2.4-5-3.8-9.7-.3-.9-.6-1.8-.8-2.7-.3-.9-.5-1.8-.7-2.7-1.1-4.7-1.6-9.3-1-12.2 1.2-5.2 6-12.5 8.3-15.8.7-1 1.1-1.6 1.2-1.7l2.2 1.7 2.2 1.7c-2 2.7-7.5 10.8-8.5 15.4-.5 2.1.1 6.2 1.1 10.3 36.6-4.5 61.2-11.9 64.4-12.9h.3l1-.3.8.3.2.1c.1 0 12.3 4.9 30.5 4.5 2.1-.1 4.3-.2 6.5-.4 27.8-5.7 54.4-25.3 61.4-30.8-2.2-3.9-7.3-12.6-13.9-21.6-.6-.8-1.1-1.5-1.7-2.3-.6-.7-1.1-1.5-1.7-2.2-6.3-8.1-13.4-15.8-20.3-19.8-7.3-4.2-17.2-6.9-27.6-8.9-3.1 8.5-7.3 16.1-12.6 22.3-.6.7-1.3 1.4-1.9 2.1-.7.7-1.3 1.4-2 2-6.8 6.5-14.8 10.8-23.8 12.2-2.2.3-4.4.5-6.6.5-29 0-56.5-30.1-63-70.8-.5-3.3-.9-6.6-1.1-9.9-17.1-7.1-36.7-12.8-58.6-14.3-1.6-.1-3.2-.2-4.8-.2-66.1 0-97.5 95.6-100.9 106.7-6.8 22.4-11.2 42.3-11.4 67.4h19.2c8.7-39.3 37-60.2 38.4-61.2l2.3-1.6 2.5 1.3 2.5 1.3c-.1.1-.5 1-1.2 2.5-.3.8-.7 1.8-1.2 2.9-.3.9-.7 1.9-1.1 2.9-1.9 5.2-4 12-4.3 18.3-.7 12.3 5.1 29.9 5.2 30.1l.5 1.5-1 1.2c-.2.3-.5.6-.8 1-.7.8-1.4 1.7-2.2 2.8-.6.9-1.3 1.8-2 2.8-2.6 3.7-5.1 8.1-5.9 11.6 0 .1-.1.3-.1.4-.2.8-.3 1.6-.3 2.4 0 .9.1 1.8.3 2.8.4 2.3 1.6 4.9 4.1 8.1 1 1.4 2 2.5 3 3.6s1.9 2 2.8 2.8c1.4 1.3 2.7 2.2 3.7 2.8.7.4 1.2.6 1.6.7 2.3.6 4 .2 5.8-.7.6-.3 1.3-.7 2-1.1l.8-.5c.2-.1.3-.2.5-.3-.5-.3-1-.6-1.5-1-1.1-.8-2.2-1.8-3.2-2.8-2.4-2.5-4.5-5.6-6-8.5-.5-1-.9-2-1.3-3.1-.4-.9-.6-1.9-.7-2.8-.2-1-.1-1.9.1-2.8.2-.4.3-.9.6-1.3 1.3-2.2 4.1-6.8 6.2-10.3.7-1.1 1.3-2.1 1.7-2.8.5-.8.8-1.4.8-1.4l.8-1.4h11.2c-5.8-7.1-14.3-18.7-14.1-23.7.2-3 2.8-9.3 5.6-15.3.4-.9.8-1.7 1.2-2.5.4-.9.9-1.8 1.3-2.6 1.9-3.7 3.5-6.8 4.3-8.2 0-.1.1-.2.1-.2l2.5 1.3 2.5 1.3c-1.4 2.6-3.1 5.8-4.7 9.1 14.9 10.6 37.6 21.2 67.6 20 4.6-.2 9-.5 13.4-.8-.2-.7-.4-1.4-.5-2.1-2.4-12.8 4.6-28.1 4.9-28.7l2.5 1.2 2.5 1.2c0 .2-6.5 14.3-4.4 25.3.2.9.5 1.8.8 2.7.3.9.7 1.8 1.1 2.7.4.9.9 1.8 1.4 2.7 4.3 7.4 11.1 14.4 13.4 16.6l.7.7 1 1-.1 1.1v.3c0 .1-.1 1-.2 2.5-.2 2.8-.5 7.4-.3 11.6 0 1 .1 1.9.2 2.8 0 .5.1 1 .2 1.5.1.4.2.8.3 1.3.6 3.1 1.8 7.5 3.8 11.6.5 1 1 1.9 1.5 2.8.6 1 1.3 1.9 2 2.8 1.9 2.3 4.1 4 6.9 4.6 5.1 1.1 9.7-1.8 12.7-4.9zm95.1.3h-13.5c-1.8.9-7.2 3.2-14.1 3.2-7.6 0-12.5-1-15.6-3.2-.3-.2-.6-.4-.9-.7-.8-.7-1.4-1.5-1.8-2.1-.1-.1-.1-.2-.2-.3-.9-1.2-1.2-1.7-4-1.7-1.2 0-3.2.2-3.4 1.8 0 .1.1.1.1.2.3.6.9 1.6 1.8 2.8 3.7 4.8 12.5 13.1 26.3 11.8 12.1-1.2 20.7-7.4 25.3-11.8zm20.4-5.6c-1.3-2.7-2.6-6.6-3-11.6h-73c-.3.1-.7.1-1 .1-.4 0-.7 0-1-.1h-49.7c.5 4.1 3.4 9 5.2 11.6H328c1.1-2.7 3.8-4.8 8.5-4.8 5.3 0 7 1.8 8.6 4.1.2.3.3.5.5.7H407zm0-28.8h-57.6l-5.1 6.4c-.5.5-2.4 2.8-4.8 5.2H404c.4-5 1.7-8.9 3-11.6zm47.9 20.2c-.5-1.6-1-3.6-1-5.8s.5-4.3 1-5.8l-41.7-8.3c-.3.6-.8 1.4-1.2 2.4-1.2 2.6-2.4 6.5-2.4 11.7 0 5.1 1.2 9.1 2.4 11.7.4 1 .8 1.8 1.2 2.4l41.7-8.3z"/></svg>