<svg version="1.1" xmlns="http://www.w3.org/2000/svg" x="0" y="0" viewBox="0 0 512 512" xml:space="preserve"><path d="M24.7 329c-.4-6.4-.8-13.7-.8-16 0-2.4-.5-4.4-1.2-4.4s-2-4.4-2.8-9.6c-.9-5.5-2.5-10.2-3.5-10.8-1.1-.7-1.6-1.6-1.2-2.1.3-.7-.3-4.1-1.3-7.7-2.9-10-6.5-37.5-8-61.6-.4-6.9-1.1-16.5-1.5-21.1-.5-6.1-.3-8.8.9-9.6 1.3-.8 1.3-1.7 0-4.8-.9-2-1.2-3.3-.7-2.8s1.7.4 2.8-.5c2.4-2 2.7-1.5 6.5 9.2 2.8 7.7 3.2 8.2 2.7 3.7-.3-2.9-1.1-7.3-1.6-9.8-.7-3.6-.5-4.4.9-3.9 3.1.9 6.9 10.2 6.8 16.5-.1 3.2.3 5.9.8 5.9.5-.1 4.5-3.5 8.9-7.4 16.2-15 24.6-18.3 29.8-11.7 4.3 5.3 3.6 9.6-2.1 14.4-9.6 8-16.1 15.6-19.8 22.9-3.1 6.1-3.5 7.7-2 8.2 1.1.4 3.7 2.5 6 4.9 6.4 6.5 21.7 18.1 23.5 17.7.9-.3 1.7.3 1.9 1.1 0 .7 2.4 3.5 5.3 6 8 6.8 9 7.8 8.2 8.6-1.1 1.1-6.2-2-10.2-6.1-4.5-4.5-29.4-23.3-34.7-25.9-3.7-2-3.7-2-5.1 2.9-2 6.9-1.9 14 .4 20.6 4.9 14.5 5.5 20.2 4.8 41.4-.1 3.9-.3 4-1.3 1.3-2-4.9-2.5-3.6-2.3 5.6.1 6.1.7 8.6 1.9 8.6.9 0 1.7.7 1.7 1.5 0 .7-.5.9-1.3.5-.7-.4-1.5-.1-1.5.5-.1.8-.4 2.1-.5 2.8-.1.8-.4 3.5-.5 6-.1 3.5-.7 4.4-2.1 3.9-1.6-.7-2 .5-2.3 6.2l-.1 7.2-.9-6c-.7-4.7-.9-5.1-1.2-2-.1 2.3-.7 4.8-1.3 5.7-.6 1.2-1.4-2.7-2-10zm10.8-41.2c-.5-.4-.9 0-.9.9s.4 1.3.9.9c.4-.5.4-1.3 0-1.8z"/><path d="M36.8 322.9c-.4-1.1-.1-2.7.5-3.7.8-1.3 1.2-.9 1.2 1.9.1 3.8-.6 4.6-1.7 1.8zm0-16.4c-.4-.4-.4-1.7 0-2.8.7-1.6.9-1.6 1.9-.1 2 3.1.5 5.3-1.9 2.9zm167.4-28.7c-3.3-10.6-5.5-15.6-6.1-13.6-1.3 3.7-4.5-2.7-8.5-17.4-2.1-7.3-5.2-15.4-6.9-18.1-3.2-4.7-7.2-17.4-7.2-22.7 0-2.5 7-10.4 9.4-10.4.5 0 1.5 1.2 1.9 2.8 1.2 3.6 2.3 2.3 2.9-3.1.4-4.1 3.7-9 5.9-9 .7 0 3.9-1.7 7.3-4 3.5-2.1 9.3-4.9 13-6.1s7.4-2.9 8.2-4c1.1-1.3 4.1-1.7 11.4-1.3 14.6.8 21.9 5.3 28.3 18.1 3.1 6.1 3.3 7.3 2 11.4-1.6 4.7-.8 8.2.8 4 1.2-2.9 2.7-2.7 3.9.9l1.1 2.9.5-2.9c1.1-5.6 2.4-3.2 4.1 7 .8 5.6 2.3 11.2 3.2 12.2 1.2 1.5 1.6 6.9 1.5 18.7-.1 9.2 0 17.8.4 19 1.1 3.7 9 5.2 16 3.1 3.2-.9 5.9-1.3 5.9-.7 0 1.2-17 6.6-21 6.6-3.3 0-7.8-4-9.6-8.6-1.1-2.8-3.1-14.8-6.8-40.6-.7-4.8-1.6-10.1-2-11.8-.7-3.2-.8-3.2-4 1.5-4 5.6-14.2 11.6-21.4 12.5-7.8.9-14 3.5-12 4.9 1.1.8.8.9-.8.4-1.3-.4-3.7-.1-5.2.7-1.5.8-2.9 1.1-3.5.7-1.3-1.5 2.8-4.3 10.4-7.3 4-1.6 9.2-4.1 11.3-5.6 3.7-2.5 3.7-2.7.7-1.9-3.1.9-3.1.7 1.5-4.1 2.7-2.9 5.6-6.6 6.5-8.4 1.6-3.1 1.3-3.6-2.7-7.2-3.6-3.2-5.1-3.7-8.5-2.9-2.3.4-7.2 1.3-11 2-3.7.7-9 2.3-12 3.7-5.7 2.9-14.8 2.5-16-.7-.4-.9.4-3.1 1.6-4.4 2-2.1 2-2.7.5-2.7-5.6 0-6.4 5.3-2.5 16 1.5 4 2.7 7.4 2.7 7.7 0 .3.7 0 1.3-.4.8-.4 1.7.3 2.1 1.6.4 1.3 1.5 3.9 2.3 5.6 1.7 3.5 2 12.2 1.1 35.4-.4 8.1-.1 16.2.4 18.3.8 2.4.5 3.6-.4 3.6-.8.2-1.7-.6-2-1.4zm202.7-3.8c-4.3-1.7-11.7-8.8-14.1-13.4-1.6-3.2-1.6-4.3 0-8 .9-2.4 3.3-5.9 5.2-7.6l3.5-3.2-3.2-3.9c-5.6-6.6-3.3-16.5 5.3-23.1 6.5-4.9 18.3-6 23-2 4 3.5 2.9 5.2-2.7 4.5l-4.4-.4 3.7 1.5c5.2 2.1 4.5 4.4-1.1 3.5-5.9-.9-12.2 1.2-14.1 4.7-.8 1.5-1.2 2.8-.9 2.9 2.7 1.5 10.8 3.9 14.8 4.3 6.8.7 10.1 2.7 11 6.6 1.5 5.7-2.3 8.4-12.1 8.2-8.9 0-17.2 2.9-19.3 7-2 3.6 5.6 10.8 15.3 14.5 6.8 2.5 9.7 2.8 19.7 2.3 8.8-.4 11.4-.3 10.2.9-1.9 2-35.3 2.5-39.8.7z"/><path d="M342.1 269.8c-2.5-4-8.4-16.5-8.4-17.8 0-3.1-3.3-4.3-9-3.2-4.7.8-5.3.7-4.1-.8.8-1.1 3.6-1.9 6-1.9 2.5 0 4.5-.3 4.5-.7 0-1.7-8.5-25.4-9.4-26.5-.5-.7-1.1 0-1.1 1.3 0 6.8-2.7 29.8-4.1 35.1-2.4 9.3-8.9 12.2-14.1 6.5-2.4-2.7-2.4-3.2-.1-20.9 2.9-22.7 4.1-27.1 9-32.7 4.7-5.3 10-7.6 14.2-6 3.3 1.2 7.6 9.8 8.8 18 1.9 10.9 7.2 29.8 8.6 29.8 1.2 0 5.5 8.8 5.5 11.3 0 1.1.5 2 1.1 2 1.6 0 1.5 4.3-.1 6.4-.7.8-2.4 1.6-3.7 1.6s-2.9-.7-3.6-1.5zm1.9-15.3c-.5-.4-.9 0-.9.9s.4 1.3.9.9c.4-.4.4-1.2 0-1.8zm9.8 15.2c-.1-1.3.7-4.4 1.7-6.9 1.1-2.4 1.6-5.6 1.3-6.9-.4-1.3 1.2-6.4 3.3-11.3 2.3-4.9 4.1-9.2 4.1-9.4 0-1.2-10.6-7.6-12.5-7.6s-6.1-5.5-6.1-7.8c0-.7 1.6-3.1 3.6-5.2 3.1-3.5 3.7-3.9 5.1-2.1.8 1.1 2.3 2.1 3.3 2.4 4.9.9 7 2.9 9.3 8l2.3 5.5 2.3-5.2c2.3-5.5 13.4-19.4 15.4-19.4.7 0 2.8.7 4.7 1.3 3.1 1.2 3.3 1.7 2 3.3-1.3 1.6-1.2 2 1.2 2 1.5 0 2.8.3 2.8.5 0 .3-2.4 2.9-5.3 5.9-3.5 3.5-5.3 6.5-5.3 8.8 0 1.9-.5 3.5-1.3 3.5-.7 0-1.3.8-1.3 1.9s-4 6.4-8.9 11.8c-14.4 15.6-16 17.6-18.7 23.7-1.6 2.9-3 4.5-3 3.2zm97.1-1.2c-1.2-2.9-4.5-22.6-6.2-36.6-.4-3.9-1.3-7.3-2-7.8-.7-.4-1.2-2.7-1.2-4.9 0-6.2 4.7-10.9 14.4-14.1 21.9-7.4 37.2 1.9 28.1 17.2-3.5 5.7-6.8 8.5-14.1 12-3.2 1.3-5.7 3.1-5.7 3.7 0 .7 3.2 2.5 6.9 4.4 3.9 1.7 9.4 5.1 12.5 7.3 5.5 4.3 9.8 6.8 22.2 12.8 6.4 3.1 8.6 6 3.5 4.4-1.6-.5-8.6-3.9-15.6-7.6-6.9-3.6-13.3-6.2-14.1-6-.8.3-5.1-.5-9.3-1.9-4.4-1.3-8.1-2.3-8.4-2-.3.3.3 3.6 1.1 7.6 1.2 5.2 1.2 7.2 0 7.6-.8.3-1.5 1.6-1.5 3.1 0 1.3-.5 2.5-1.3 2.5-.7 0-1.7 0-2.3.1-.5 0-1.7-2.3-2.7-5.1l-1.7-5.1.7 4.9c.4 5.9-1.6 8-3.3 3.5zm27.8-16.2c0-.4-.7-1.1-1.6-1.6-.9-.5-1.1-.4-.5.5.9 1.6 2.1 2.1 2.1 1.1zm-13.3-30.1c3.3-2.8 4-4 2.4-4-4.5 0-9 2.5-9 5.3-.1 3.7 1 3.4 6.6-1.3zM8 267.4c0-.9.4-1.3.9-.9.4.5.4 1.3 0 1.9-.5.4-.9 0-.9-1zm89.7-3c-12.5-6-19.1-17.4-17.4-30.1 1.5-11 10.6-22.5 19.8-24.6 2.9-.7 4.5-.1 7 2.1 4.3 4.1 4 5.1-1.1 5.2-3.7.1-4 .3-1.3.9 4.7 1.3 4.1 3.6-.8 4-3.2.4-5.1 1.6-7.6 5.3-3.5 4.9-4.4 11.4-2 12.9.8.4 1.3 2.3 1.3 3.9 0 3.2 6.9 8.9 12.9 10.8 8.1 2.4 19.5-5.6 23-15.8 1.7-5.5 1.2-16.1-1.2-20.5-2.3-4.3-8.8-7.3-12-5.6-4 2.1-6.5 1.6-3.6-.7 6.1-4.7 15.8-.1 19.5 8.9.9 2.4 2.3 4.8 2.9 5.2 2.1 1.5 2.7 12.6.9 18-2.1 6.5-8.6 15.3-14.4 19.3-6.3 4.5-17.4 4.9-25.9.8zm-95-24.9c0-.9.4-1.3.9-.9.4.5.4 1.3 0 1.9-.5.3-.9 0-.9-1zM0 204.9c0-.9.4-1.3.9-.9.4.5.4 1.3 0 1.9-.5.4-.9 0-.9-1z"/></svg>