<svg version="1.1" xmlns="http://www.w3.org/2000/svg" x="0" y="0" viewBox="0 0 512 115.7" xml:space="preserve"><path d="M209.4 97.8v2.8c-.4 0-.6-.1-.9-.1-2.8 0-3.6 2.1-3.6 4.7v5.5h-2.8V98.1h2.6v2.5c.8-1.7 2.2-2.8 4.2-2.8h.5zm0 2.8c.1 0 0 0 0 0zm27.6 3.8c0 4-2.2 6.6-5.6 6.6-1.7 0-3.1-.6-4.1-2v6.3h-2.8V98.1h2.6v1.7h.1c.9-1.4 2.5-2.1 4.1-2.1 3.5 0 5.7 2.6 5.7 6.7zm-2.8.1c0-2.7-1.3-4.5-3.5-4.5-2.1 0-3.4 1.7-3.4 4.4s1.3 4.4 3.5 4.4c2.1 0 3.4-1.7 3.4-4.3zm-11.9 4.4h.6v2c-.9.2-1.3.3-1.8.3-1.1 0-1.9-.4-2.1-1.5-1.1 1.1-2.8 1.5-4.4 1.5-2.6 0-4.2-1.4-4.2-3.8 0-3.3 3.1-3.7 5.6-4 1.9-.2 2.5-.4 2.8-.7.1-.1.2-.4.2-.9 0-1.3-.8-1.9-2.6-1.9s-2.6.6-2.8 2.2H211c.2-3.2 2.3-4.3 5.4-4.3 3 0 5.2 1.1 5.2 3.8v6.4c0 .7.1.9.7.9zm-3.3-4.5c-1 .5-2 .6-3 .7-1.3.2-2.8.4-2.8 2.1 0 1.2.8 1.9 2.3 1.9 1.1 0 2.2-.4 2.9-1 .6-.6.6-1.4.6-2.2v-1.5zm-82.8-3.8zm110.1-2.8c-1.8 0-3.1.8-4 2.1v-6.5h-2.8v17.3h2.8v-6.8c0-2.1.8-3.8 3.1-3.8 2 0 2.4 1.3 2.4 3v7.6h2.8v-8.5c0-2.9-1.6-4.4-4.3-4.4zm-110.6 0c-2 0-3.4 1.1-4.2 2.8v-2.5h-2.6v12.6h2.8v-5.5c0-2.6.8-4.7 3.6-4.7.3 0 .5.1.9.1v-2.8h-.5zm-16.4 10.8c-3.7 0-5.1-3.3-5.1-6.5s1.5-6.5 5.2-6.5c2.2 0 3.9 1.2 4.3 3.3h3c-.6-4-3.8-5.9-7.3-5.9-5.3 0-8.3 4.2-8.3 9.1 0 5.5 3.2 9.1 8.1 9.1 4.3 0 7.2-2.9 7.6-7h-3.1c-.3 2.5-1.6 4.4-4.4 4.4zm66.3-4.2c0 4.1-2.4 6.7-6.3 6.7s-6.4-2.6-6.4-6.7 2.5-6.7 6.4-6.7c3.8.1 6.3 2.7 6.3 6.7zm-2.8 0c0-2.8-1.3-4.4-3.5-4.4s-3.6 1.7-3.6 4.4c0 2.8 1.3 4.5 3.6 4.5 2.2 0 3.5-1.7 3.5-4.5zm-39.9 3.2l-3.4-9.3h-3.1l4.8 12.2c-.3 1.1-.7 2.9-2.1 2.9-.4 0-.7-.1-1.5-.2v2.3c.9.1 1.3.1 1.9.1 3.1 0 3.8-2.7 4.7-5.1l4.8-12.2h-2.9l-3.2 9.3zm56.5 1.7c.1 4.1-1.4 6.4-6 6.4-3.4 0-5.3-1.3-5.6-3.8h2.8c.3 1.3 1.2 1.9 2.9 1.9 2.3 0 3.3-1.1 3.3-3.7v-1.5c-1 1.5-2.2 2.1-4 2.1-3.3 0-5.5-2.4-5.5-6.3 0-4 2.2-6.5 5.6-6.5 1.8 0 2.9.7 3.9 2.1v-1.8h2.6v11.1zm-2.6-5.2c0-2.6-1.3-4.1-3.4-4.1s-3.3 1.6-3.3 4.3c0 2.5 1.3 4.1 3.3 4.1 2.1 0 3.4-1.7 3.4-4.3zm-25.3-3.9l-.1-2h-2.5v-3.8h-2.8v3.8H164v2h2.2v6c0 2.9-.3 4.7 3.4 4.7.7 0 1.1 0 1.9-.1v-2.2h-1.1c-1.4 0-1.4-.6-1.4-1.8v-6.6h2.5zm-8.6 4.2c0 4-2.2 6.6-5.6 6.6-1.7 0-3.1-.6-4.1-2v6.3h-2.8V98.1h2.6v1.7h.1c.9-1.4 2.5-2.1 4.1-2.1 3.5 0 5.7 2.6 5.7 6.7zm-2.9.1c0-2.7-1.3-4.5-3.5-4.5-2.1 0-3.4 1.7-3.4 4.4s1.3 4.4 3.5 4.4c2.1 0 3.4-1.7 3.4-4.3zm280.5-11.1h-14.1V96h5.5v14.7h3.1V96h5.5v-2.6zm11 11c0 4.1-2.4 6.7-6.3 6.7s-6.4-2.6-6.4-6.7 2.5-6.7 6.4-6.7c3.9.1 6.3 2.7 6.3 6.7zm-2.8 0c0-2.8-1.3-4.4-3.5-4.4s-3.6 1.7-3.6 4.4c0 2.8 1.3 4.5 3.6 4.5 2.2 0 3.5-1.7 3.5-4.5zm17.3 0c0 4.1-2.4 6.7-6.3 6.7s-6.4-2.6-6.4-6.7 2.5-6.7 6.4-6.7c3.8.1 6.3 2.7 6.3 6.7zm-2.8 0c0-2.8-1.3-4.4-3.5-4.4-2.3 0-3.6 1.7-3.6 4.4 0 2.8 1.3 4.5 3.6 4.5 2.2 0 3.5-1.7 3.5-4.5zm-68.8-11h-3.1v17.3h11.9v-2.6h-8.8V93.4zm102.5 1h-2.8v3.8H492v2h2.1v6c0 2.9-.3 4.7 3.4 4.7.7 0 1.1 0 1.9-.1v-2.2h-1.1c-1.4 0-1.4-.6-1.4-1.8v-6.6h2.5v-2h-2.5v-3.8zm-9.5 16.3h2.8V98.1h-2.8v12.6zm-19 0h2.8V93.4h-2.8v17.3zm17-12.5H482l-5 5v-9.8h-2.7v17.4h2.7v-4.5l1.7-1.6 3.8 6.1h3.4l-5.3-8 4.8-4.6zm-73.1 2.2c-3.3-.8-4.4-.9-4.4-2.6 0-1.5 1.2-2.4 3.3-2.4 2.2 0 3.6.9 3.8 3.1v-.2h2.9c-.2-3.9-3-5.5-6.5-5.5-3.9 0-6.4 2-6.4 5.1 0 3.5 2.8 4.1 6.5 5.1 2.6.7 4.1 1 4.1 2.8 0 1.7-1.4 2.7-3.7 2.7-2.5 0-4.5-1-4.5-3.7h-3c0 4.2 3.2 6.2 7.3 6.2 3.4 0 6.9-1.5 6.9-5.4 0-3.7-3.3-4.4-6.3-5.2zm-118.9-2.6c-1.9 0-3.2.7-4.2 2.2v-1.9h-2.6v12.6h2.8v-6.8c0-2.9 1.4-3.8 3.1-3.8 2.2 0 2.4 1.6 2.4 3.3v7.3h2.8v-8.4c0-2.8-1.4-4.5-4.3-4.5zm16.4-4.4h2.7v17.3h-2.6V109c-.8 1.4-2.1 2.1-4 2.1-3.6 0-5.8-2.6-5.8-6.7s2.2-6.6 5.7-6.6c1.8 0 3.1.7 4 2v-6.4zm0 11.1c0-2.8-1.3-4.4-3.6-4.4-2-.1-3.4 1.6-3.4 4.3 0 2.8 1.3 4.5 3.5 4.5s3.5-1.6 3.5-4.4zm-25.5 4.4h.6v2c-.9.2-1.3.3-1.8.3-1.1 0-1.9-.4-2.1-1.5-1.1 1.1-2.8 1.5-4.4 1.5-2.6 0-4.2-1.4-4.2-3.8 0-3.3 3.1-3.7 5.6-4 1.9-.2 2.5-.4 2.8-.7.1-.1.2-.4.2-.9 0-1.3-.8-1.9-2.6-1.9s-2.6.6-2.8 2.2H273c.2-3.2 2.3-4.3 5.4-4.3 3 0 5.2 1.1 5.2 3.8v6.4c0 .7.1.9.7.9zm-3.4-4.5c-1 .5-2 .6-3 .7-1.3.2-2.8.4-2.8 2.1 0 1.2.8 1.9 2.3 1.9 1.1 0 2.2-.4 2.9-1 .6-.6.6-1.4.6-2.2v-1.5zm-22.3 3.2l-3.4-9.3h-3.1l4.8 12.2c-.3 1.1-.7 2.9-2.1 2.9-.4 0-.7-.1-1.5-.2v2.3c.9.1 1.3.1 1.9.1 3.1 0 3.8-2.7 4.7-5.1l4.8-12.2h-2.9l-3.2 9.3zm70.9-7.2c-3.3-.8-4.4-.9-4.4-2.6 0-1.5 1.2-2.4 3.3-2.4 2.2 0 3.6.9 3.8 3.1v-.2h2.9c-.2-3.9-3-5.5-6.5-5.5-3.9 0-6.4 2-6.4 5.1 0 3.5 2.8 4.1 6.5 5.1 2.6.7 4.1 1 4.1 2.8 0 1.7-1.4 2.7-3.7 2.7-2.5 0-4.5-1-4.5-3.7h-3c0 4.2 3.2 6.2 7.3 6.2 3.4 0 6.9-1.5 6.9-5.4 0-3.7-3.3-4.4-6.3-5.2zm46-7.4h-2.4l-6.9 17.7v-2.6h-8.8V93.4h-3.1v17.3h11.9l-.2.5h2.5l6.7-17.4V96h5.5v14.7h3.1V96h5.5v-2.6h-14l.2-.4zm111.9 3h2.8v-2.7h-2.8V96zm-142.1 4.4c-3.3-.8-4.4-.9-4.4-2.6 0-1.5 1.2-2.4 3.3-2.4 2.2 0 3.6.9 3.8 3.1v-.2h2.9c-.2-3.9-3-5.5-6.5-5.5-3.9 0-6.4 2-6.4 5.1 0 3.5 2.8 4.1 6.5 5.1 2.6.7 4.1 1 4.1 2.8 0 1.7-1.4 2.7-3.7 2.7-2.5 0-4.5-1-4.5-3.7h-3c0 4.2 3.2 6.2 7.3 6.2 3.4 0 6.9-1.5 6.9-5.4 0-3.7-3.3-4.4-6.3-5.2zM81.9 45.8c0 27.1-16.6 45.3-41.1 45.3C16.4 91.1 0 72.8 0 45.6 0 18.5 16.5 0 40.9 0c24.3 0 41 18.6 41 45.8zm-8.3-.1c0-23-13.2-38.5-32.8-38.5-19.4 0-32.5 15.4-32.5 38.1 0 23.3 12.9 38.6 32.6 38.6 19.7 0 32.7-15.3 32.7-38.2zm86.6 12.7c0-19.9 11.8-33.8 28.7-33.8 18.6 0 27.6 15.4 27.6 32.7v2.2H168c0 13.2 6.1 25.4 21.2 25.4 10 0 16.7-5.6 19.2-16.5h7.4c-2.6 13.9-12 22.7-26.8 22.7-17.5 0-28.8-12.8-28.8-32.7zm7.8-5.2h40.8c-.9-13.9-8.5-22.3-20.2-22.3-13.7 0-19.2 10.6-20.6 22.3zM278 89V46.2c0-15.4-9.5-21.7-21.7-21.7-10.8 0-17.2 4.7-22.2 13.6l-.1-11.8h-7.2V89h7.7V55c0-16.2 8.3-23.8 19.8-23.8 9.5 0 16 4.6 16 17.5V89h7.7zm-154.5 2.1c-10.1 0-17.9-4.5-22.2-13.6v35h-7.4V26.3h7l-.1 12.1c4.5-9.3 12-13.9 22.5-13.9 17.1 0 28.3 13.3 28.3 33.5 0 19.9-11.2 33.1-28.1 33.1zm-.9-6.6c12.8 0 21.2-10.5 21.2-26.6 0-16.5-8.3-27.1-21.5-27.1s-21.2 10.1-21.2 27c0 16.5 8.3 26.7 21.5 26.7zm345.2-8.7V2.1h-15.4V89H512V75.8h-44.2zm-62 3c-12.4 0-22.5-5.3-22.5-18.7h-15c0 21 16 30.8 36.6 30.8 17 0 34.5-7.5 34.5-27.2 0-18.7-16.6-22.2-31.4-26-16.7-4.4-22.1-4.9-22.1-13.2 0-7.6 6.2-12.1 16.6-12.1 10.7 0 17.9 4.4 18.9 15.3l14.7-.1C435.3 8.2 421.3.3 403.6.3c-19.5 0-32.1 9.9-32.1 25.4 0 17.7 14.3 20.7 32.7 25.5 12.9 3.3 20.3 4.9 20.3 13.9 0 8.6-7 13.7-18.7 13.7zm-76.9-41.1c-16.7-4.4-22.1-4.9-22.1-13.2 0-7.6 6.2-12.1 16.6-12.1 10.7 0 17.9 4.4 18.9 15.3v-.1H357C356.2 8.2 342.2.3 324.5.3c-19.5 0-32.1 9.9-32.1 25.4 0 17.7 14.3 20.7 32.7 25.5 12.9 3.3 20.3 4.9 20.3 13.9 0 8.6-7 13.7-18.7 13.7-12.4 0-22.5-5.3-22.5-18.7h-15c0 21 16 30.8 36.6 30.8 17 0 34.5-7.5 34.5-27.2 0-18.7-16.6-22.2-31.4-26z"/></svg>