<svg version="1.1" xmlns="http://www.w3.org/2000/svg" x="0" y="0" viewBox="0 0 512 208.3" xml:space="preserve"><path d="M488.9 5c-8.5-3.3-16.5-5-21.9-5-3.7 0-6.2.8-6.9 2.5 0 .1 0 .1-.1.2v.1c-.1.4-.1.8 0 1.2 0 0 1.3 8.5-.2 12.3l-47.4 123.1c-6.4 5.1-13.7 10.1-19.8 12.5-33.3 12.5 9.1-44.2 12.6-48.7 7.8-10.1 25.3-27.2 30.6-35.8 3.9-6.5 3.7-11.6-5.3-11.6-6.7.2-19 4.9-24.7 9.3-1.3 1.3-.7 2 .9 1.3 1.1-.4 2.3-1.1 3.7-1.6 6.4-3.5 3.9 3.9 2.3 6.5-7.7 13.4-21.2 32.2-28.3 41.5-3.4 4.6-7.3 9.2-10.9 13.1-6.8 6.5-20.4 18.1-30.6 22-33.3 12.5 9.1-44.2 12.6-48.7 7.9-9.9 25.4-27.1 30.7-35.6 3.9-6.5 3.7-11.6-5.3-11.6-6.7.2-19 4.9-24.7 9.3-1.3 1.3-.7 2 .9 1.3 1.1-.4 2.3-1.1 3.7-1.6 6.4-3.5 3.9 3.9 2.3 6.5-7.7 13.4-21.2 32.2-28.3 41.5-5.8 7.9-13 15.7-18.5 20.1-2.1 1.8-.9 3.5 1.3 2 2-1.3 4.9-4.2 8.3-7.7-6 12.1-10.9 29 4.9 31 13.6 1.8 29.6-11.9 40-22.3 1.1-1.1 2.5-2.3 3.8-3.8l.9-.9c-6 12.1-10.9 29 5 30.9 9.6 1.3 20.4-5.2 29.6-12.7l-12.2 31.6c-4.4 11.8 1.5 25 13.3 29.5 2.7 1 5.5 1.5 8.2 1.5 9.2 0 17.9-5.5 21.5-14.6l61.9-160.9c1.2-3.2 8.1-9.3 8.1-9.3.3-.3.6-.6.8-.9v-.1c0-.1.1-.1.1-.2 1.7-3.9-8.6-11.8-22.9-17.2zm-54 186.6c-2.6 6.4-8.9 10.5-15.5 10.5-1.9 0-3.9-.4-5.8-1.1-8.5-3.3-13.1-13.1-10-21.4l16.6-43.2c3.1-3 5.7-5.7 7.6-7.7 1.6-1.6 1.1-4.4-1.6-1.6-.9 1-2.2 2.2-3.9 3.8l9.8-25.4s3.6-5.7 10.5-9.8c6.9-4.1 12.8-3.3 20.5-6.6 7.9-3.6 16.4-13.5 16.4-13.5l-44.6 116zm60.4-161.8l-10.5 27.3-11.4 13.3c-1.9 2.2-8.4 9-13.6 11.4-2.7 1.1-5.2 1.7-7.8 2.2-3.3.7-7 1.5-11 3.5l26.3-68.3.6-1.8c4.2 3.4 9.9 5.8 13.6 7.3 5.4 2 10.4 3.2 14.5 3.6-.2.5-.5 1-.7 1.5zm6.7-10.7c-.3.9-1.7 1.3-3.7 1.3-3.3 0-8.5-1.1-14-3.2-8.9-3.4-15.3-8.1-14.4-10.4.3-.9 1.7-1.3 3.7-1.3 3.3 0 8.5 1.1 14 3.2 8.8 3.3 15.2 8 14.4 10.4zm-73.7 125.5c.6 1.3 0 3-1.3 3.6-1.3.6-3 0-3.6-1.3-.6-1.3 0-3 1.3-3.6 1.3-.8 3-.1 3.6 1.3zm9.9 20.4c.4.9 0 1.9-.9 2.3-.9.4-1.9 0-2.3-.9-.4-.9 0-1.9.9-2.3.9-.4 1.9 0 2.3.9zm16.2-45.3c.6 1.3 0 3-1.3 3.6-1.3.6-3 0-3.6-1.3-.6-1.3 0-3 1.3-3.6 1.4-.7 3-.1 3.6 1.3zm-15.8 14.5c1.1 2.6 0 5.5-2.6 6.7-2.6 1.1-5.5 0-6.7-2.6-1.1-2.6 0-5.5 2.6-6.7 2.6-1.1 5.6 0 6.7 2.6zm3.3-27.1c.4.9 0 1.9-.9 2.3-.9.4-1.9 0-2.3-.9-.4-.9 0-1.9.9-2.3.7-.4 1.8 0 2.3.9zm-323.2 2.7c3.5 15-9.6 41.4-29.6 64.4-12.4 14.2-34.9 28.1-54.1 28.1-17.5 0-32-7.4-35.1-26.3-.3-2 1.6-1.6 1.8-.2 2.6 13.7 14.3 23 28 23 17.1 0 42.2-21 58.6-43.8 4.2-5.7 15.2-21.9 20.8-34.5-3.5 4.4-7.7 7.7-9.7 9.3-.9.9-2.2-1.2-1.3-2.1 3.7-3 13-11.5 14.3-19 0-1.9-.7-3.2-2.1-3.7-1.1-.5.2-1.8.9-1.8 2.2-.1 6 .8 7.5 6.6zm.6-13.6c-2.8-2.3-2.3-7 1.3-10.7 3.2-3.9 8.1-5.1 10.9-3 2.7 2.1 2.2 7-1.3 10.9-3.2 3.7-8.1 4.9-10.9 2.8zm115.3 57.2c5.3-1.3 9.7-4.3 9.7-8.8 0-.4-.9-.4-.9 0 0 2.8-3.1 5-6.5 5.5-8.3 1.3-24.5-8.4-32.2-18.2 8.3 3.1 25-1.4 32.9-7.1 7.4-5.3 10.2-11.1 10.8-15.8.9-7.9-7.7-12.5-19.5-7.9-7.7 3.1-16.8 9.9-26.3 22.5 10-16.6 29.8-43.6 49.1-61 23.6-21 37.3-17 16 5.3-8.8 9.1-25.2 21-36.6 26.1-3.5 1.4-1.8 3.5.7 2.3 12.1-5.3 28.2-16.2 37.8-25.4 28.7-27.6 4.8-48.4-27.1-19.2-21.5 19.9-35.6 40.7-47.9 67.7-4.2 5.1-7.4 9.3-11.1 12.6l-1.1 1.1c-10.5 9.1-27.2 21.2-37.4 21.4-7.4.2-10.4-5.3-9.1-12.5 2-11.1 13.5-24.3 23.4-28.8 12.8-5.8 20.3 5.5 3.5 14.6-6.4 3.3-14.1 5.1-17.2 5.1-3.7 0-3.3 1.4-.2 1.6 5.1.2 13.4-2 18.8-4.6 17.2-8.2 18.3-23.6-.4-24.1-20.3-.7-44.6 16.6-44.4 38.3.2 9.9 8.1 15.1 18.8 15.1 18-.2 34-13.8 47.1-25.8 1.8-1.5 3.7-3.3 5.5-5.1-4.6 11.6-6.9 22.5-5.8 30.5.7 5.8 4 8.6 6.5 10.7.5.4 1.6 0 .9-1.1-3.9-4.6-2.8-18.1 2.6-31.2 4.4 9 21.6 20.1 39.6 16.2zm-21.7-38.1c21-18.8 29.2-2 15.9 8.2-6.9 5.3-20.6 9.3-25 6.7l-.9-.5c-.5-.9-1.1-1.8-1.4-2.8 3.4-4.2 7.4-8.1 11.4-11.6zm106.8-14c-8.1 17.4-11.2 48.4-37.3 76-13 13.7-31.5 24.8-50.7 24.8-17.5 0-32-7.3-35.1-26.1-.2-2 1.6-1.6 1.8-.2 2.6 13.7 14.5 23 28.2 23 18.9 0 39.1-16.3 55.1-38.3 11.3-15.5 20.4-32.6 29.2-49.6-3.1 4.8-6.7 9.7-10 13.9-10.1 12.4-25.1 28.1-35.1 28.1-7.4 0-11.8-4.9-8.1-16 2.7-7.4 12.9-19.2 18.7-25.9 4.2-4.8 1.4-8.4-6-2.8-8.8 6.5-19 17.3-24.8 22-1.9 1.7-2.5-.7-.5-2.3 7.4-6.1 16.7-17 23.6-22.3 11.8-9.2 26.6-2.3 19.7 12.8-2.9 6.1-8 12.1-12 17.7-9.9 14.1-1.9 12.1 6.9 4.6 9.9-9 24-26.1 32.4-38.7 2.7-6.4 6.3-13.7 10.2-14.8 8.6-2.6 12.1 7.6 3.7 6.7-2.7-.4-6.2 0-9.9 7.4z"/></svg>