<svg version="1.1" xmlns="http://www.w3.org/2000/svg" x="0" y="0" viewBox="0 0 512 512" xml:space="preserve"><path d="M459.5 55.5H258.8C278.5 23 293.6 0 293.6 0s-42.4 22.2-90.1 55.5H79.4c-27.9 0-51.2 23.4-51.2 51.2v167.8C11 313.7 1.3 343.4 1.3 343.4s10.8 3.6 26.9 8.6v108.8c0 27.9 23.4 51.2 51.2 51.2h380.1c27.9 0 51.2-22.4 51.2-50.2V106.7c0-27.9-23.4-51.2-51.2-51.2zM269.6 22.7c-13.9 22.2-34.3 55.6-53.8 90.5-16.5-8.4-32.6-15.7-47.1-21.8 16.8-13.5 35.7-27.3 56.6-41.1 16.6-11 32-20.4 44.3-27.6zM161.9 125c-11-15.5-21.5-28.9-29.9-39.1 11.7 4.2 26.4 9.8 42.5 16.8 35.6 15.4 85.6 40.7 121.8 73.7C357.3 232.1 426 357.1 443 389c-16.4 7.2-55.3 24.4-83.6 36.8-28.7 12.6-78.5 38.7-100.2 50.2-3.5-36.2-15.1-146.5-32.1-220.5-8.9-38.1-30.8-82.1-65.2-130.5zM36.2 256.7v-150c0-23.4 19.8-43.2 43.2-43.2h112.8c-10.7 7.7-21.5 15.9-32 24.5-31-12.4-53.1-18.9-53.1-18.9s13.5 14.6 31.4 37.7c-13.3 12.1-25.6 24.8-35.9 37.6-26.6 33.3-49.3 75.4-66.4 112.3zm-24.7 81.6c9.8-27.8 46.5-125.5 97.3-188.9 9.3-11.6 20.9-23.8 34.5-36.2 13 17.2 27.6 38.2 40.8 61-4.8 10.1-9.1 19.9-12.7 29.1-16.5 41.6-24.3 90.9-27.9 124.9-2.4 22.6-3.4 41.5-3.7 52.8-16.3-6.4-47.9-18.4-72.6-25.6-23.4-6.8-44.7-13.5-55.7-17.1zm491.2 123.5c0 11.2-4.5 21.8-12.7 29.8S471 504 459.5 504H79.4c-23.4 0-43.2-19.8-43.2-43.2V354.5c8.7 2.7 18.6 5.6 28.8 8.6 34.1 9.9 82.6 29.6 82.6 29.6s0-107.6 31.3-186.5c2.9-7.4 6.4-15.3 10.1-23.4 13.2 24 24.5 49.7 30.2 74.6 20.6 89.7 33.1 231.4 33.1 231.4s73.5-39.4 110.3-55.6 91.5-40.3 91.5-40.3S373.5 236 301.8 170.5c-22.9-21-51.1-38.9-78.8-53.6 10.5-18.8 21.2-37.1 31-53.4h205.5c23.4 0 43.2 19.8 43.2 43.2v355.1z"/></svg>