<svg version="1.1" xmlns="http://www.w3.org/2000/svg" x="0" y="0" viewBox="0 0 512 512" xml:space="preserve"><path d="M481.3 169.8L323.7 285.6c-34.3 25.9-83.4 38.8-123.3 23L34.1 225.1C-5.8 209.3-12 184.9 22.3 159L166.4 58.8c34.3-25.9 94.9-34.1 134.8-18.3l185.2 51.4c40 15.8 29.1 52-5.1 77.9zm6 7.9l-.1.1-157.6 115.8c-26.8 20.3-60.2 31.9-91.6 31.9-14.7 0-28.7-2.6-41.4-7.6l-.4-.2-.4-.2L30 234.2c-6.7-2.7-12.5-5.6-17.6-8.8C-10.2 248.1-1.4 269 34.1 283l166.2 83.5c39.9 15.8 89.1 2.9 123.3-23l157.6-115.8c27.3-20.6 39.7-47.8 23.4-66-4.8 5.6-10.6 11-17.3 16zm0 58l-.1.1-157.6 115.7c-26.8 20.3-60.2 31.9-91.6 31.9-14.7 0-28.7-2.6-41.4-7.6l-.4-.2-.4-.2L30 292.1c-6.7-2.7-12.5-5.6-17.6-8.8-22.6 22.6-13.8 43.5 21.7 57.6l166.2 83.5c39.9 15.8 89.1 2.9 123.3-23l157.6-115.8c27.3-20.6 39.7-47.8 23.4-66-4.8 5.6-10.6 11-17.3 16.1zm0 57.9l-.1.1-157.6 115.7c-26.8 20.3-60.2 31.9-91.6 31.9-14.7 0-28.7-2.6-41.4-7.6l-.4-.2-.4-.2L30 350c-9.1-3.7-16.8-7.8-22.9-12.4-15.5 20.3-5.4 38.8 27 51.6l166.2 83.5c39.9 15.8 89.1 2.9 123.3-23l157.6-115.8c24.8-18.8 37.3-42.9 27.1-60.8-5.4 7.1-12.5 14-21 20.5z"/></svg>