<svg version="1.1" xmlns="http://www.w3.org/2000/svg" x="0" y="0" viewBox="0 0 512 130.9" xml:space="preserve"><path d="M25.8 55.5l-9.9-17.1 15-26.1h30.2l8.2 14.2h-5.1l-16.7 29H25.8zm44.6-18.9l-15 26.1 15 26.1h30.2l15-26.1-15-26.1H70.4zM15.1 65.9L0 92l15.1 26.1h30.1L60.3 92 45.2 65.9H15.1zm196-16.9c.7 4.1.7 8.5.1 13.4-1.6 11.8-5.8 21-12.8 27.7-6.9 6.6-15.8 10-26.5 10h-35.7L149.7 0h18.5l-3.6 26.6h15.9c7 0 12.5.9 16.6 2.6 4 1.7 7.3 4.6 9.8 8.7 2.1 3.4 3.5 7.1 4.2 11.1zm-22-1.7c-2.7-3.2-7.8-4.9-15.3-4.9h-11.3l-5.6 41.8h12.8c7.1 0 12.2-1.6 15.5-4.7 3.3-3.1 5.4-8.4 6.4-15.8 1-7.7.2-13.1-2.5-16.4zm99.7-11.6c5.8 6.9 7.9 16.1 6.4 27.6s-6.1 20.7-13.8 27.6c-7.6 6.9-17.1 10.3-28.5 10.3-11.4 0-20-3.4-25.8-10.3s-8-16.1-6.4-27.5c1.5-11.5 6.2-20.7 13.9-27.7 7.7-6.9 17.2-10.4 28.6-10.4 11.3 0 19.8 3.5 25.6 10.4zM273.2 47c-2.6-3.9-6.7-5.8-12.3-5.8s-10.2 2-13.8 5.8c-3.8 4-6.1 9.4-7 16.3-.9 7-.1 12.4 2.5 16.3 2.6 3.9 6.7 5.8 12.3 5.8 5.6 0 10.2-1.9 13.9-5.8 3.7-3.9 6-9.3 6.9-16.3.9-7 .1-12.4-2.5-16.3zm220.2-5.8H510l2-14.6h-16.7L498.9 0h-18.5l-3.6 26.6h-11.1l-2 14.6h11.1L470 77c-1 7.4.1 13 3.2 17s8 6 14.9 6h14l2-14.6h-4.7c-4.4 0-7.4-1.1-8.9-3.2s-1.8-5.9-1.1-11.3l4-29.7zm-118.6-5.5c5.8 6.9 7.9 16.1 6.4 27.6s-6.1 20.7-13.8 27.6c-7.6 6.9-17.1 10.3-28.5 10.3-11.4 0-20-3.4-25.8-10.3s-8-16.1-6.4-27.5c1.5-11.5 6.2-20.7 13.9-27.7 7.7-6.9 17.2-10.4 28.6-10.4 11.3 0 19.8 3.5 25.6 10.4zM359.2 47c-2.6-3.9-6.7-5.8-12.3-5.8-5.6 0-10.2 2-13.8 5.8-3.7 4-6 9.4-7 16.3-.9 7-.1 12.4 2.5 16.3 2.6 3.9 6.7 5.8 12.3 5.8s10.2-1.9 13.9-5.8c3.7-3.9 6-9.3 6.9-16.3.9-7 .1-12.4-2.5-16.3zm91.6 13.8c-3.5-3.7-9.1-5.6-16.8-5.6h-16.8c-3.1 0-5.2-.5-6.5-1.6-1.2-1.1-1.7-2.7-1.4-5 .3-2.5 1.4-4.2 3.1-5.2s5.3-1.5 10.6-1.5h32.8l2.1-15.3h-39.8c-8.5 0-15 1.9-19.5 5.6-4.5 3.7-7.3 9.5-8.4 17.4-1.1 7.8-.1 13.2 2.8 16.2 2.9 3.1 9.1 4.6 18.6 4.6h16c3.4 0 5.9.5 7.3 1.7 1.5 1.2 2 3 1.7 5.5-.3 2.5-1.4 4.3-3.1 5.4-1.7 1.1-4.3 1.7-7.8 1.7h-39.1l-2.1 15.3h47.9c5.7 0 10.5-2.1 14.7-6.4s6.7-9.8 7.6-16.6c.9-7.1-.4-12.5-3.9-16.2zm-315.2 57.3c-1.3 1.2-2.1 3.1-2.5 5.7-.2 1.3-.1 2.5.1 3.5.3.9.7 1.7 1.4 2.3.5.5 1.1.8 1.7 1 .7.2 1.6.3 2.7.3h5.2l.4-2.5h-5c-1.3 0-2.2-.3-2.6-1-.4-.7-.5-1.8-.3-3.4.3-1.9.7-3.2 1.4-4 .7-.8 1.6-1.2 2.9-1.2h4.8l.3-2.5H141c-2.3 0-4.1.6-5.4 1.8zm34.9.7h-2l-.7 5h-4.9l-.3 2h4.9l-.7 5.1h2l.7-5.1h4.9l.3-2h-4.9l.7-5zm29.2 0h-2l-.7 5h-4.9l-.3 2h4.9l-.7 5.1h2l.7-5.1h4.9l.3-2H199l.7-5zm251.4-.7c-1.3 1.2-2.1 3.2-2.5 5.8-.2 1.3-.1 2.4.1 3.4.3.9.7 1.7 1.4 2.3.5.5 1.1.8 1.7 1 .6.2 1.5.3 2.6.3h5.2l.4-2.6h-5c-1.2 0-2-.2-2.5-.8-.4-.5-.6-1.4-.4-2.7h8.5l.4-2.5h-8.5c.2-1.1.7-1.9 1.3-2.5.6-.5 1.5-.8 2.6-.8h5l.2-2.7h-5.1c-2.3 0-4.1.6-5.4 1.8zm-78.7-1.8l4.2 14.6h-3.4l-.8-3.5h-6.3l-1.8 3.5h-3.2l8.1-14.6h3.2zm-.7 8.5l-1.4-5.6-2.9 5.6h4.3zm54.6 6.1h3.2l2-14.6h-3.2l-2 14.6zM251 128.2c-.4-.1-.8-.4-1-.7-.2-.2-.3-.5-.3-.8-.1-.4 0-.9.1-1.8l1.2-8.6h-3.1l-1.2 8.7c-.2 1.2-.2 2.1-.1 2.7.1.6.4 1.2.8 1.7.4.6 1 1 1.6 1.2.6.2 1.6.3 3 .3h4l.3-2.5h-3.6c-.7 0-1.3-.1-1.7-.2zm92.9-10.8c.7.7 1 1.8.8 3.3-.2 1.1-.5 2-1.1 2.7-.6.7-1.4 1.2-2.4 1.4l2.8 6.1h-3.4l-2.4-5.7h-3.6l-.8 5.7h-3.1l2-14.6h7.5c1.8 0 3 .4 3.7 1.1zm-2.6 2c-.5-.3-1.2-.5-2.2-.5h-3.7l-.5 3.7h3.8c1 0 1.7-.1 2.2-.4.4-.3.7-.8.8-1.4.1-.7 0-1.1-.4-1.4zm65.8-2c.7.7 1 1.8.8 3.3-.2 1.1-.5 2-1.1 2.7-.6.7-1.4 1.2-2.4 1.4l2.8 6.1h-3.4l-2.4-5.7h-3.6l-.8 5.7h-3.1l2-14.6h7.5c1.8 0 3 .4 3.7 1.1zm-2.6 2c-.4-.3-1.1-.5-2.1-.5h-3.8l-.5 3.7h3.8c1 0 1.7-.1 2.2-.4.4-.3.7-.8.8-1.4.1-.7 0-1.1-.4-1.4zm-127.8 11.5h3.2l2-14.6h-3.2l-2 14.6zm206.4-13.5c-.9.7-1.5 1.9-1.7 3.4s0 2.5.7 3.2c.6.7 1.8 1 3.5 1h3.6c.8 0 1.3.1 1.6.4s.4.7.3 1.3c-.1.6-.3 1-.7 1.3-.4.3-1 .4-1.9.4h-7.7l-.4 2.5h7.9c1.7 0 3.1-.4 4-1.1.9-.7 1.5-1.8 1.7-3.3s0-2.5-.6-3.1c-.6-.7-1.7-1-3.4-1h-4c-.7 0-1.1-.1-1.4-.4-.3-.3-.4-.7-.3-1.2.1-.6.4-1.1.8-1.4.5-.3 1.1-.5 1.9-.5h7.6l.5-2.6h-8c-1.7 0-3.1.4-4 1.1zm-169.8.9c.2.5.3 1.1.2 1.8-.1.8-.4 1.5-.8 2.1-.4.6-1 1-1.8 1.4.7.3 1.2.7 1.5 1.3.3.5.4 1.2.3 2-.2 1.4-.7 2.4-1.6 3-1 .7-2.3 1-4 1h-8l2-14.6h7.5c.9 0 1.7.1 2.3.2.6.1 1 .3 1.4.5.5.3.8.8 1 1.3zm-4.3 7c-.3-.3-.8-.4-1.5-.4H303l-.5 3.4h4.5c.7 0 1.2-.1 1.6-.4.4-.3.6-.7.7-1.3.1-.6 0-1-.3-1.3zm.8-5.9c-.3-.3-.8-.4-1.5-.4h-4.5l-.5 3.4h4.5c.7 0 1.2-.1 1.6-.4.4-.3.6-.7.7-1.3.1-.6 0-1-.3-1.3z" fill="#fff"/></svg>