<svg version="1.1" xmlns="http://www.w3.org/2000/svg" x="0" y="0" viewBox="0 0 512 512" xml:space="preserve"><path d="M459.5 55.5H258.8C278.5 23 293.6 0 293.6 0s-42.4 22.2-90.1 55.5H79.4c-27.9 0-51.2 23.4-51.2 51.2v167.8C11 313.7 1.3 343.4 1.3 343.4s10.8 3.6 26.9 8.6v108.8c0 27.9 23.4 51.2 51.2 51.2h380.1c27.9 0 51.2-22.4 51.2-50.2V106.7c0-27.9-23.4-51.2-51.2-51.2z" opacity=".1" fill="#fff"/><path d="M459.5 55.5H258.8C278.5 23 293.6 0 293.6 0s-42.4 22.2-90.1 55.5H79.4c-27.9 0-51.2 23.4-51.2 51.2v167.8C11 313.7 1.3 343.4 1.3 343.4s10.8 3.6 26.9 8.6v108.8c0 27.9 23.4 51.2 51.2 51.2h380.1c27.9 0 51.2-22.4 51.2-50.2V106.7c0-27.9-23.4-51.2-51.2-51.2zm-278.1 16c-7.1 5.3-14.2 10.8-21.1 16.5-20-8.1-36.4-13.6-45.4-16.5h66.5zM44.2 106.7c0-19.1 16.1-35.2 35.2-35.2h29.9c4.5 5 15.6 17.7 29.2 35.3-13.3 12.1-25.6 24.8-35.9 37.6-22.7 28.3-42.5 63-58.4 95.5V106.7zm450.5 355.1c0 9-3.7 17.6-10.3 24.1-6.7 6.5-15.5 10.1-24.9 10.1H79.4c-19.1 0-35.2-16.1-35.2-35.2V356.9c6.6 2 13.6 4.1 20.8 6.2 34.1 9.9 82.6 29.6 82.6 29.6s0-107.6 31.3-186.5c2.9-7.4 6.4-15.3 10.1-23.4 13.2 24 24.4 49.7 30.2 74.6 20.6 89.7 33.1 231.4 33.1 231.4s73.5-39.4 110.3-55.6 91.5-40.3 91.5-40.3S373.5 236 301.8 170.5c-22.9-21-51.1-38.9-78.8-53.6 8.8-15.8 17.8-31.2 26.2-45.4h210.3c19.1 0 35.2 16.1 35.2 35.2v355.1z" fill="#fff"/></svg>