<svg version="1.1" xmlns="http://www.w3.org/2000/svg" x="0" y="0" viewBox="0 0 1109.5 222.2" xml:space="preserve"><path d="M126.1 130.3c2.1.9 4.3 1.8 6.5 2.7 18 7.6 36.5 15.4 55.1 15.2 18.5-.2 47-21.5 71.8-43.7-16 31.5-39 62.6-68.2 64.4-31.9 1.9-50.2-17.9-65.2-38.6zm138.5-30.7c-8.5 17.9-17.6 32.6-27 43.9-14.5 17.5-30.1 26.8-46.1 27.8-35 2.1-54-20.7-69.9-43-14.2-5.7-27.3-9.7-37.8-6.6-25.3 7.5-54.8 85.8-55.1 86.6l-.2.6c11.4 8.3 25.5 13.3 40.7 13.3 33.1 0 60.7-23.2 67.6-54.2 15.1 11.8 34 18.8 54.6 18.8 49 0 88.8-39.8 88.8-88.8 0-4.2-.3-8.2-.8-12.3-4.6 4.6-9.6 9.3-14.8 13.9zm-145.8 25c-.5-.7-1-1.5-1.5-2.2C103.7 103 92 86.2 73.1 90c-28.4 14.1-39.9 82.7-43.2 108.4 8.8-21.3 31.8-72.7 53.2-79 10.3-3 22.6.2 35.7 5.2zm188.8-72c-.3.3-12.2 13.5-28.8 29.9l-2.4-10.3c-1.9 5-3.9 10-6.1 15.1-.8 2-1.7 4-2.6 6 3.9-3.7 7.6-7.3 11.2-10.8.2 1 .4 2 .5 3.1 16.7-16.4 28.8-29.9 30.1-31.3l-1.9-1.7zM294 6.3c-.1.3-6.5 29-18.9 62C262.9 33.9 230 9.2 191.4 9.2c-47.2 0-85.8 36.8-88.6 83.3-9.9-5.5-21.4-8.7-33.6-8.7C31 83.8 0 114.8 0 153c0 21.9 10.2 41.5 26.2 54.2 1.1-11.5 11.1-102.7 45.9-119.7l.3-.1c20.6-4.3 32.8 13.2 47 33.4 1.3 1.8 2.5 3.6 3.8 5.4 3.4 1.4 6.8 2.8 10.3 4.3 17.8 7.5 36.1 15.2 54.1 15 18.8-.2 49.4-24.1 75-47.6 1.9-3.9 3.7-7.8 5.3-11.6 2.6-6 5-12.1 7.2-18 .5 1.3.9 2.6 1.3 3.9 13.2-34.4 20-65 20.1-65.3l-2.5-.6zm173.7 83c0 12-3 22.1-8.9 30.6-6.8 9.6-16.2 15.4-28 17.5-6.3 1.8-12.6 4.9-18.8 9.5 1-.1 2-.2 2.8-.2 5.6 0 12.7 2 21.3 5.9 8.6 3.9 14.9 5.9 18.9 5.9 5.5 0 9.7-1.8 12.5-5.3l2.5 1.7c-5.5 7.9-12.4 11.8-20.7 11.8-4.2 0-8.4-.7-12.4-2.1-4.1-1.4-7.5-3-10.2-4.7s-5.7-3.3-9.1-4.7c-3.4-1.5-6.5-2.2-9.5-2.2-1.5 0-3.2.6-5.1 1.8-2 2.1-3.8 4.3-5.4 6.7l-5.6-2.9c.3-.6.7-1.1 1.1-1.7s.9-1.1 1.4-1.6c6-7.2 13.3-13.1 21.9-17.6-11.3-1.4-20.6-6.1-28-14.4-7.4-8.2-11.1-18.6-11.1-31.3s3.3-23.6 9.8-32.6c4-5.5 9-9.9 14.9-13s12.4-4.7 19.4-4.7c13.4 0 24.4 4.3 33.2 12.9 8.7 8.6 13.1 20.2 13.1 34.7zM419.5 47c-3.5 0-6.8.8-10.1 2.5s-6.3 4.1-9.1 7.4c-2.8 3.2-5 7.7-6.8 13.4-1.7 5.7-2.6 12.1-2.6 19.3 0 13.2 3.4 23.8 10.1 31.7s14.7 11.8 24.1 11.8c8.4 0 15.3-3.7 20.7-11.1 5.4-7.4 8-17.4 8-29.9 0-14.1-3.3-25.1-9.8-33.1-6.4-8-14.6-12-24.5-12zm104.8 90.9c-9.7 0-18.1-2.3-25.2-7-7-4.6-12.2-10.4-15.4-17.4-3.2-6.9-4.8-14.4-4.8-22.5 0-15.4 5-27.8 15-37.1 8.8-8.1 18.9-12.2 30.5-12.2 6.9 0 13.6 1 20.2 3.1S555 48 556 48.1c1.6 10.1 2.7 17.5 3.2 22.3-1.8.9-3.4 1.2-4.8.7C549.5 55 539 47 522.9 47c-8.4 0-16.1 4.3-23 12.8-2.7 3.3-4.8 7.4-6.3 12.3-1.5 4.8-2.3 10.3-2.3 16.3 0 7.4 1.1 14.3 3.4 20.8 2.3 6.4 6 11.9 11.1 16.3s11.2 6.7 18.3 6.7c6.7 0 12.7-1.2 17.9-3.7 5.3-2.5 10.4-6.5 15.5-12.1 1.5 0 2.6.7 3.3 2.2-9.8 12.8-22 19.3-36.5 19.3zm73.5 0c-6.6 0-11.4-1.8-14.2-5.5-2.9-3.7-4.3-8.3-4.3-14V91.1c0-4.5-.6-7.4-1.8-8.9-1.2-1.4-3.6-2.3-7.1-2.6-.4-.4-.6-1.2-.6-2.5s.2-2.2.6-2.7c7.1.2 12 .3 14.7.3 2.4 0 4.1-.1 5.1-.3.7 0 1.1.3 1.1 1-.4 7-.6 12-.6 14.8v26.1c0 5.7 1.2 9.5 3.5 11.7 2.3 2.1 5 3.2 8 3.2 4.3 0 9.1-2.3 14.4-6.8 1.5-1.3 2.3-3.2 2.3-5.6V91.2c0-4.6-.6-7.6-1.7-9.1s-3.5-2.3-7.2-2.5c-.5-.4-.7-1.2-.7-2.5s.2-2.2.7-2.7c7.1.2 12 .3 14.7.3 2.4 0 4.1-.1 5.1-.3.7 0 1.1.3 1.1 1-.4 7-.6 12-.6 14.8v27.6c0 3.7.7 6.3 2 7.8 1.3 1.4 4.2 2.3 8.6 2.7.5.5.7 1.1.7 2s-.2 1.5-.7 1.9c-8.1.9-13.9 2.8-17.4 5.7-1.1.3-2 .3-2.7 0-1.1-3.5-1.6-6.3-1.6-8.4 0-1.1-.6-1.1-1.7-.1-7.3 5.7-13.8 8.5-19.7 8.5zm51.3-63.2h6.6v-7.6c0-2.1-.1-3.7-.1-4.7s-.1-1.8-.1-2.3c0-.6-.1-1-.1-1.3V58c0-.3.2-.6.6-.9.4-.3.8-.5 1.2-.6s1.1-.3 1.8-.6c.8-.2 1.4-.4 1.9-.6.6-.2 1.3-.6 2.2-1.1s1.6-.8 2.3-1.1c.6-.3 1.1-.4 1.3-.4.7 0 1.1.4 1.1 1.3-.4 3.8-.6 8.9-.6 15.2v5.6h17.3c.7 0 1.1.3 1.1.8v2.7c0 1.2-1.1 1.7-3.4 1.7h-15v36.7c0 4.7.3 8.1 1 10.2.7 2.1 1.9 3.2 3.8 3.2 4.4 0 8.3-1.4 11.8-4.1 1.5.1 2.3.9 2.5 2.5-5.7 6.3-12.1 9.5-19.4 9.5-7.4 0-11.1-4.8-11.1-14.3V79.9h-8.5c-.5 0-.7-.3-.7-.8v-1.8c-.1-1.7.8-2.6 2.5-2.6zm45.2 32.2c0-9.5 2.6-17.4 7.9-23.6 5.7-6.7 13.2-10 22.6-10 6.9 0 12.7 1.7 17.5 5.1s8.1 7.4 9.9 12.1c1.9 4.7 2.8 9.7 2.8 15.1 0 10-3.1 18.1-9.3 24.2-5.5 5.4-12.5 8.1-21.2 8-9.6 0-17-3.1-22.3-9.4-5.2-6.1-7.9-13.3-7.9-21.5zm28.4-28.4c-10.6 0-16 8.4-16 25.1 0 3.1.4 6.2 1.1 9.3.7 3.1 1.8 6.2 3.2 9.3 1.4 3.1 3.5 5.6 6.2 7.5 2.7 2 5.8 2.9 9.4 2.9 4.2 0 8-1.7 11.2-5.2 3.3-3.4 4.9-9.2 4.9-17.3 0-10.2-1.8-18-5.3-23.5-3.6-5.3-8.5-8.1-14.7-8.1zm63.2 6.5c0 1.2.3 1.3 1 .3.1-.1.3-.3.4-.3 7.4-7.8 14.7-11.6 21.8-11.6 3.7 0 6.8 1 9.4 3 2.6 2 4.3 4.5 5 7.5.2.9.7 1 1.5.1 2.4-2.5 5-4.6 7.9-6.2s5.6-2.8 8.2-3.4c2.6-.6 5.2-.9 7.7-.9 5.9 0 9.8 2 11.8 5.9s3 9.5 3 16.9v22.5c0 5.7.5 9.2 1.5 10.5 1 1.3 3.6 2.1 7.7 2.5.4.4.6 1.3.6 2.5 0 1.3-.2 2.2-.6 2.7-8.2-.2-13.2-.3-14.8-.3-1.7 0-6.6.1-14.7.3-.4-.5-.6-1.4-.6-2.7s.2-2.1.6-2.5c3.9-.3 6.4-1.1 7.4-2.5s1.5-4.9 1.5-10.5V93.5c0-4.5-.7-7.8-2.1-9.8-1.4-2-3.6-3-6.4-3-6.9 0-13.2 3.2-19 9.5.1 1.2.1 3.1.1 5.7v22.6c0 5.7.5 9.2 1.4 10.5 1 1.3 3.3 2.1 7.1 2.5.4.4.6 1.3.6 2.6s-.2 2.2-.6 2.6c-8.2-.2-13-.3-14.1-.3-1.7 0-6.6.1-14.7.3-.4-.4-.6-1.3-.6-2.5 0-1.3.2-2.2.6-2.7 4-.3 6.5-1.1 7.5-2.4 1-1.3 1.4-4.9 1.4-10.6V93.8c0-8.6-3.2-13-9.5-13-4.6 0-9.7 2.8-15.5 8.4-1.6 1.7-2.5 3.7-2.5 6v23.4c0 4 .2 6.8.7 8.5s1.3 2.8 2.3 3.3 2.9.9 5.6 1.2c.4.5.6 1.3.6 2.6s-.2 2.1-.6 2.6c-8.1-.2-12.8-.3-14.3-.3-2.5 0-7.6.1-15.5.3-.4-.4-.6-1.3-.6-2.5 0-1.3.2-2.2.6-2.7 4.2-.3 6.9-1.1 8-2.5 1.2-1.4 1.7-4.9 1.7-10.5V90.8c0-4-.6-6.5-1.7-7.6-1.1-1-3.7-1.8-7.7-2.1-.6-1.6-.7-3-.3-4.1 7.5-.9 13.6-2.3 18.2-4.1.8 0 1.3.4 1.8 1.1.8 1.8 1.2 5.4 1.2 11zm103.7-23.5c0-5.7-.7-9.2-2.2-10.6-1.5-1.4-4.9-2.1-10.2-2.3-.5-.4-.7-1.2-.7-2.4 0-1.3.2-2.1.7-2.7 9.6.2 15.7.3 18.5.3 2.1 0 5.7-.2 10.7-.5s8-.5 9.1-.5c6 0 11.2.8 15.6 2.4 4.4 1.6 7.6 3.8 9.7 6.4 2.1 2.7 3.6 5.2 4.5 7.7s1.3 5 1.3 7.5c0 3.4-.6 6.7-1.7 9.9s-2.9 6.4-5.2 9.4c-2.4 3-5.8 5.5-10.3 7.3-4.5 1.9-9.8 2.8-15.8 2.8-4.8 0-8.7-.5-11.6-1.5v24c0 5.6.9 9 2.7 10.4 1.8 1.4 5.8 2.2 11.8 2.5.5.5.7 1.4.7 2.7s-.2 2.1-.6 2.5c-9.6-.2-16.5-.3-20.8-.3-3.1 0-9.3.1-18.6.3-.5-.4-.7-1.3-.7-2.5 0-1.3.2-2.2.7-2.7 5.3-.2 8.7-1 10.2-2.4s2.2-4.9 2.2-10.6V61.5zM902 57v33.3c1.7.5 5.4.7 10.9.7 7.1 0 12.4-1.7 16-5.2s5.4-9 5.4-16.5c0-8.3-1.8-13.9-5.5-16.9-3.6-3-8.4-4.5-14.4-4.5-8.3 0-12.4 3-12.4 9.1zm64.5 61.5V56c0-3.1-.1-5.4-.2-6.9-.2-1.5-.8-2.6-1.8-3.4s-1.9-1.1-2.4-1.2c-.6 0-2.2-.2-4.8-.4-1.1-1.1-1.4-2.5-.8-4.3 8.5-.7 15.3-2 20.2-3.9 1.3 0 1.9.5 1.9 1.5-.4 3.8-.6 8.9-.6 15.1v66c0 5.7.6 9.3 1.8 10.7 1.2 1.4 4 2.2 8.5 2.4.4.5.6 1.4.6 2.7s-.2 2.1-.6 2.5c-8.2-.2-13.6-.3-16-.3-2.7 0-8 .1-16.1.3-.5-.4-.7-1.3-.7-2.5 0-1.3.2-2.2.7-2.7 4.5-.2 7.3-1 8.5-2.4 1.2-1.4 1.8-4.9 1.8-10.7zm30.2-11.6c0-9.5 2.6-17.4 7.9-23.6 5.7-6.7 13.2-10 22.6-10 6.9 0 12.7 1.7 17.5 5.1s8.1 7.4 9.9 12.1c1.9 4.7 2.8 9.7 2.8 15.1 0 10-3.1 18.1-9.3 24.2-5.5 5.4-12.5 8.1-21.2 8-9.6 0-17-3.1-22.3-9.4-5.3-6.1-7.9-13.3-7.9-21.5zm28.3-28.4c-10.6 0-16 8.4-16 25.1 0 3.1.4 6.2 1.1 9.3.7 3.1 1.8 6.2 3.2 9.3 1.4 3.1 3.5 5.6 6.2 7.5 2.7 2 5.8 2.9 9.4 2.9 4.2 0 8-1.7 11.2-5.2 3.3-3.4 4.9-9.2 4.9-17.3 0-10.2-1.8-18-5.3-23.5-3.6-5.3-8.5-8.1-14.7-8.1zm44.5-3.8h6.6v-7.6c0-2.1-.1-3.7-.1-4.7s-.1-1.8-.1-2.3c0-.6-.1-1-.1-1.3V58c0-.3.2-.6.6-.9.4-.3.8-.5 1.2-.6s1.1-.3 1.8-.6c.8-.2 1.4-.4 1.9-.6.6-.2 1.3-.6 2.2-1.1.9-.5 1.6-.8 2.3-1.1.6-.3 1.1-.4 1.3-.4.7 0 1.1.4 1.1 1.3-.4 3.8-.6 8.9-.6 15.2v5.6h17.3c.7 0 1.1.3 1.1.8v2.7c0 1.2-1.1 1.7-3.4 1.7h-15v36.7c0 4.7.3 8.1 1 10.2.7 2.1 1.9 3.2 3.8 3.2 4.4 0 8.3-1.4 11.8-4.1 1.5.1 2.3.9 2.5 2.5-5.7 6.3-12.1 9.5-19.4 9.5-7.4 0-11.1-4.8-11.1-14.3V79.9h-8.5c-.5 0-.7-.3-.7-.8v-1.8c-.1-1.7.7-2.6 2.5-2.6z" fill="#fff"/></svg>