<svg version="1.1" xmlns="http://www.w3.org/2000/svg" x="0" y="0" viewBox="0 0 508 508" style="enable-background:new 0 0 508 508" xml:space="preserve"><path d="M0 325v-1l121-61h123l-62.4 62H0zm245 62V264l-62 62.4V508h1l61-121zM0 184l121 61h123l-62.4-62H0v1zm387 61 121-61v-1H326.4L264 245h123zm-142-1V121L184 0h-1v181.6l62 62.4zm18-123v123l62-62.4V0h-1l-61 121zm245 203-121-61H264l62.4 62H508v-1zM181 508V327H0v181h181zm82-244v123l61 121h1V326.4L263 264zm64 63v181h181V327H327zm0-327v181h181V0H327zM181 181V0H0v181h181z" style="fill:#fff"/></svg>