<svg version="1.1" xmlns="http://www.w3.org/2000/svg" x="0" y="0" viewBox="0 0 512 512" xml:space="preserve"><path d="M453 110.3l-37 79.3V512H32V0h288l89.6 89.6L422.9 61l13.5-29L480 52.3l-13.5 29-13.5 29" opacity=".1" fill="#fff"/><path d="M175.8 158.1l.2 1v129h-16v-127c-1.1-3.5-6-17.1-16-17.1s-14.9 13.6-16 17.1V320h-16V159l.2-1c2.8-11.1 12.7-30 31.8-30s29 18.9 31.8 30.1zM240 192h-16v16h-16v16h16v16h16v-16h16v-16h-16v-16zm48 48h16v-16h16v-16h-16v-16h-16v16h-16v16h16v16zm165-129.7l-37 79.3V512H32V0h288l89.6 89.6L422.9 61l13.5-29L480 52.3l-13.5 29-13.5 29M320 22.6V96h73.4L320 22.6zm-2.3 377.7l-42 33.4-1.5-53.7h.1l125-268H304V16H48v480h352V223.9l-82.3 176.4" fill="#fff"/></svg>