<svg version="1.1" xmlns="http://www.w3.org/2000/svg" x="0" y="0" viewBox="0 0 494 494" style="enable-background:new 0 0 494 494" xml:space="preserve"><path d="M183 4.9 238 114v113.1l-55-55.4V4.9zM327 327v167h167V327H327zm0-160h167V0H327v167zm-16 4.7V4.9L256 114v113.1l55-55.4zM266.9 256l55.4 55h166.8L380 256H266.9zm55.4-73-55.4 55H380l109.1-55H322.3zM114 256 4.9 311h166.8l55.4-55H114zM0 494h167V327H0v167zm183-171.7v166.8L238 380V266.9l-55 55.4zm128 0-55-55.4V380l55 109.1V322.3zM227.1 238l-55.4-55H4.9L114 238h113.1zM167 167V0H0v167h167z" style="fill:#fff"/></svg>