<svg version="1.1" xmlns="http://www.w3.org/2000/svg" x="0" y="0" viewBox="0 0 1109.5 222.2" xml:space="preserve"><path d="M560.8 118.6c-9.8 12.8-22 19.3-36.5 19.3-9.7 0-18.1-2.3-25.2-7-7-4.6-12.2-10.4-15.4-17.4-3.2-6.9-4.8-14.4-4.8-22.5 0-15.4 5-27.8 15-37.1 8.8-8.1 18.9-12.2 30.5-12.2 6.9 0 13.6 1 20.2 3.1S555 48 556 48.1c1.6 10.1 2.7 17.5 3.2 22.3-1.8.9-3.4 1.2-4.8.7C549.5 55 539 47 522.9 47c-8.4 0-16.1 4.3-23 12.8-2.7 3.3-4.8 7.4-6.3 12.3-1.5 4.8-2.3 10.3-2.3 16.3 0 7.4 1.1 14.3 3.4 20.8 2.3 6.4 6 11.9 11.1 16.3s11.2 6.7 18.3 6.7c6.7 0 12.7-1.2 17.9-3.7 5.3-2.5 10.4-6.5 15.5-12.1 1.5 0 2.6.7 3.3 2.2zm-93.3 34.6l2.5 1.7c-5.5 7.9-12.4 11.8-20.7 11.8-4.2 0-8.4-.7-12.4-2.1-4.1-1.4-7.5-3-10.2-4.7-2.7-1.7-5.7-3.3-9.1-4.7-3.4-1.5-6.5-2.2-9.5-2.2-1.5 0-3.2.6-5.1 1.8-2 2.1-3.8 4.3-5.4 6.7l-5.6-2.9c.3-.6.7-1.1 1.1-1.7.4-.6.9-1.1 1.4-1.6 6-7.2 13.3-13.1 21.9-17.6-11.3-1.4-20.6-6.1-28-14.4-7.4-8.2-11.1-18.6-11.1-31.3s3.3-23.6 9.8-32.6c4-5.5 9-9.9 14.9-13 5.9-3.1 12.4-4.7 19.4-4.7 13.4 0 24.4 4.3 33.2 12.9 8.7 8.6 13.1 20.2 13.1 34.7 0 12-3 22.1-8.9 30.6-6.8 9.6-16.2 15.4-28 17.5-6.3 1.8-12.6 4.9-18.8 9.5 1-.1 2-.2 2.8-.2 5.6 0 12.7 2 21.3 5.9 8.6 3.9 14.9 5.9 18.9 5.9 5.5 0 9.7-1.8 12.5-5.3zm-42.4-20.1c8.4 0 15.3-3.7 20.7-11.1 5.4-7.4 8-17.4 8-29.9 0-14.1-3.3-25.1-9.8-33.1-6.4-8-14.6-12-24.5-12-3.5 0-6.8.8-10.1 2.5s-6.3 4.1-9.1 7.4c-2.8 3.2-5 7.7-6.8 13.4-1.7 5.7-2.6 12.1-2.6 19.3 0 13.2 3.4 23.8 10.1 31.7 6.7 7.9 14.7 11.8 24.1 11.8zm172.7 4.8zm456.8-47.4c1.9 4.7 2.8 9.7 2.8 15.1 0 10-3.1 18.1-9.3 24.2-5.5 5.4-12.5 8.1-21.2 8-9.6 0-17-3.1-22.3-9.4-5.3-6.1-7.9-13.3-7.9-21.5 0-9.5 2.6-17.4 7.9-23.6 5.7-6.7 13.2-10 22.6-10 6.9 0 12.7 1.7 17.5 5.1 4.8 3.4 8.1 7.4 9.9 12.1zm-9.6 19.6c0-10.2-1.8-18-5.3-23.5-3.6-5.3-8.5-8.1-14.7-8.1-10.6 0-16 8.4-16 25.1 0 3.1.4 6.2 1.1 9.3.7 3.1 1.8 6.2 3.2 9.3s3.5 5.6 6.2 7.5c2.7 2 5.8 2.9 9.4 2.9 4.2 0 8-1.7 11.2-5.2 3.3-3.4 4.9-9.2 4.9-17.3zm-99.7-50.8c.9 2.5 1.3 5 1.3 7.5 0 3.4-.6 6.7-1.7 9.9s-2.9 6.4-5.2 9.4c-2.4 3-5.8 5.5-10.3 7.3-4.5 1.9-9.8 2.8-15.8 2.8-4.8 0-8.7-.5-11.6-1.5v24c0 5.6.9 9 2.7 10.4 1.8 1.4 5.8 2.2 11.8 2.5.5.5.7 1.4.7 2.7 0 1.3-.2 2.1-.6 2.5-9.6-.2-16.5-.3-20.8-.3-3.1 0-9.3.1-18.6.3-.5-.4-.7-1.3-.7-2.5 0-1.3.2-2.2.7-2.7 5.3-.2 8.7-1 10.2-2.4s2.2-4.9 2.2-10.6V61.5c0-5.7-.7-9.2-2.2-10.6-1.5-1.4-4.9-2.1-10.2-2.3-.5-.4-.7-1.2-.7-2.4 0-1.3.2-2.1.7-2.7 9.6.2 15.7.3 18.5.3 2.1 0 5.7-.2 10.7-.5s8-.5 9.1-.5c6 0 11.2.8 15.6 2.4 4.4 1.6 7.6 3.8 9.7 6.4 2.1 2.7 3.6 5.2 4.5 7.7zm-11 10c0-8.3-1.8-13.9-5.5-16.9-3.6-3-8.4-4.5-14.4-4.5-8.3 0-12.4 3-12.4 9.1v33.3c1.7.5 5.4.7 10.9.7 7.1 0 12.4-1.7 16-5.2s5.4-9 5.4-16.5zm-302 56.3c-1.3-1.5-2-4.1-2-7.8V90.2c0-2.8.2-7.8.6-14.8 0-.7-.4-1-1.1-1-1 .2-2.7.3-5.1.3-2.7 0-7.6-.1-14.7-.3-.5.5-.7 1.4-.7 2.7 0 1.3.2 2.1.7 2.5 3.7.2 6.1 1 7.2 2.5s1.7 4.5 1.7 9.1v27.6c0 2.4-.8 4.3-2.3 5.6-5.3 4.5-10.1 6.8-14.4 6.8-3 0-5.7-1.1-8-3.2-2.3-2.2-3.5-6-3.5-11.7V90.2c0-2.8.2-7.8.6-14.8 0-.7-.4-1-1.1-1-1 .2-2.7.3-5.1.3-2.7 0-7.6-.1-14.7-.3-.4.5-.6 1.4-.6 2.7 0 1.3.2 2.1.6 2.5 3.5.3 5.9 1.2 7.1 2.6 1.2 1.5 1.8 4.4 1.8 8.9v27.3c0 5.7 1.4 10.3 4.3 14 2.8 3.7 7.6 5.5 14.2 5.5 5.9 0 12.4-2.8 19.7-8.5 1.1-1 1.7-1 1.7.1 0 2.1.5 4.9 1.6 8.4.7.3 1.6.3 2.7 0 3.5-2.9 9.3-4.8 17.4-5.7.5-.4.7-1 .7-1.9 0-.9-.2-1.5-.7-2-4.4-.4-7.3-1.3-8.6-2.7zm471.9.4c-3.5 2.7-7.4 4.1-11.8 4.1-1.9 0-3.1-1.1-3.8-3.2-.7-2.1-1-5.5-1-10.2V80h15c2.3 0 3.4-.5 3.4-1.7v-2.7c0-.5-.4-.8-1.1-.8h-17.3v-5.6c0-6.3.2-11.4.6-15.2 0-.9-.4-1.3-1.1-1.3-.2 0-.7.1-1.3.4-.7.3-1.4.6-2.3 1.1-.9.5-1.6.9-2.2 1.1-.5.2-1.1.4-1.9.6-.7.3-1.4.5-1.8.6-.4.1-.8.3-1.2.6-.4.3-.6.6-.6.9v.8c0 .3.1.7.1 1.3 0 .5.1 1.3.1 2.3s.1 2.6.1 4.7v7.6h-6.6c-1.8 0-2.6.9-2.5 2.6v1.8c0 .5.2.8.7.8h8.5v43.8c0 9.5 3.7 14.3 11.1 14.3 7.3 0 13.7-3.2 19.4-9.5-.2-1.6-1-2.4-2.5-2.5zm-124.4 3.2c-1.2-1.4-1.8-5-1.8-10.7v-66c0-6.2.2-11.3.6-15.1 0-1-.6-1.5-1.9-1.5-4.9 1.9-11.7 3.2-20.2 3.9-.6 1.8-.3 3.2.8 4.3 2.6.2 4.2.4 4.8.4.5.1 1.4.4 2.4 1.2s1.6 1.9 1.8 3.4c.1 1.5.2 3.8.2 6.9v62.5c0 5.8-.6 9.3-1.8 10.7-1.2 1.4-4 2.2-8.5 2.4-.5.5-.7 1.4-.7 2.7 0 1.2.2 2.1.7 2.5 8.1-.2 13.4-.3 16.1-.3 2.4 0 7.8.1 16 .3.4-.4.6-1.2.6-2.5s-.2-2.2-.6-2.7c-4.5-.2-7.3-1-8.5-2.4zm-296-3.2c-3.5 2.7-7.4 4.1-11.8 4.1-1.9 0-3.1-1.1-3.8-3.2-.7-2.1-1-5.5-1-10.2V80h15c2.3 0 3.4-.5 3.4-1.7v-2.7c0-.5-.4-.8-1.1-.8h-17.3v-5.6c0-6.3.2-11.4.6-15.2 0-.9-.4-1.3-1.1-1.3-.2 0-.7.1-1.3.4-.7.3-1.4.6-2.3 1.1s-1.6.9-2.2 1.1c-.5.2-1.1.4-1.9.6-.7.3-1.4.5-1.8.6-.4.1-.8.3-1.2.6-.4.3-.6.6-.6.9v.8c0 .3.1.7.1 1.3 0 .5.1 1.3.1 2.3s.1 2.6.1 4.7v7.6h-6.6c-1.7 0-2.6.9-2.5 2.6v1.8c0 .5.2.8.7.8h8.5v43.8c0 9.5 3.7 14.3 11.1 14.3 7.3 0 13.7-3.2 19.4-9.5-.2-1.6-1-2.4-2.5-2.5zm181.3 3.3c-1-1.3-1.5-4.8-1.5-10.5V96.3c0-7.4-1-13-3-16.9-2-3.9-5.9-5.9-11.8-5.9-2.5 0-5.1.3-7.7.9-2.6.6-5.3 1.8-8.2 3.4-2.9 1.6-5.5 3.7-7.9 6.2-.8.9-1.3.8-1.5-.1-.7-3-2.4-5.5-5-7.5s-5.7-3-9.4-3c-7.1 0-14.4 3.8-21.8 11.6-.1 0-.3.2-.4.3-.7 1-1 .9-1-.3 0-5.6-.4-9.2-1.2-11-.5-.7-1-1.1-1.8-1.1-4.6 1.8-10.7 3.2-18.2 4.1-.4 1.1-.3 2.5.3 4.1 4 .3 6.6 1.1 7.7 2.1 1.1 1.1 1.7 3.6 1.7 7.6v27.8c0 5.6-.5 9.1-1.7 10.5-1.1 1.4-3.8 2.2-8 2.5-.4.5-.6 1.4-.6 2.7 0 1.2.2 2.1.6 2.5 7.9-.2 13-.3 15.5-.3 1.5 0 6.2.1 14.3.3.4-.5.6-1.3.6-2.6s-.2-2.1-.6-2.6c-2.7-.3-4.6-.7-5.6-1.2s-1.8-1.6-2.3-3.3c-.5-1.7-.7-4.5-.7-8.5V95.2c0-2.3.9-4.3 2.5-6 5.8-5.6 10.9-8.4 15.5-8.4 6.3 0 9.5 4.4 9.5 13v24.7c0 5.7-.4 9.3-1.4 10.6s-3.5 2.1-7.5 2.4c-.4.5-.6 1.4-.6 2.7 0 1.2.2 2.1.6 2.5 8.1-.2 13-.3 14.7-.3 1.1 0 5.9.1 14.1.3.4-.4.6-1.3.6-2.6s-.2-2.2-.6-2.6c-3.8-.4-6.1-1.2-7.1-2.5-.9-1.3-1.4-4.8-1.4-10.5V95.9c0-2.6 0-4.5-.1-5.7 5.8-6.3 12.1-9.5 19-9.5 2.8 0 5 1 6.4 3 1.4 2 2.1 5.3 2.1 9.8v25.3c0 5.6-.5 9.1-1.5 10.5-1 1.4-3.5 2.2-7.4 2.5-.4.4-.6 1.2-.6 2.5s.2 2.2.6 2.7c8.1-.2 13-.3 14.7-.3 1.6 0 6.6.1 14.8.3.4-.5.6-1.4.6-2.7 0-1.2-.2-2.1-.6-2.5-4.1-.4-6.7-1.2-7.7-2.5zM752.2 90.5c1.9 4.7 2.8 9.7 2.8 15.1 0 10-3.1 18.1-9.3 24.2-5.5 5.4-12.5 8.1-21.2 8-9.6 0-17-3.1-22.3-9.4-5.2-6.1-7.9-13.3-7.9-21.5 0-9.5 2.6-17.4 7.9-23.6 5.7-6.7 13.2-10 22.6-10 6.9 0 12.7 1.7 17.5 5.1 4.8 3.4 8.1 7.4 9.9 12.1zm-9.5 19.6c0-10.2-1.8-18-5.3-23.5-3.6-5.3-8.5-8.1-14.7-8.1-10.6 0-16 8.4-16 25.1 0 3.1.4 6.2 1.1 9.3.7 3.1 1.8 6.2 3.2 9.3 1.4 3.1 3.5 5.6 6.2 7.5 2.7 2 5.8 2.9 9.4 2.9 4.2 0 8-1.7 11.2-5.2 3.3-3.4 4.9-9.2 4.9-17.3zM306.5 51.6l5.9 5.4c-.3.3-7.1 7.8-15.9 15.2-4 3.4-10.9 8.3-17.3 12.7.6 4.3 1 8.7 1 13.1 0 49-39.8 88.8-88.8 88.8-20.6 0-39.6-7-54.6-18.8-6.9 31-34.5 54.2-67.6 54.2C31 222.2 0 191.2 0 153s31-69.2 69.2-69.2c12.2 0 23.6 3.2 33.6 8.7 2.8-46.5 41.4-83.3 88.6-83.3 36.9 0 68.5 22.5 81.9 54.5 2.6-6.2 5.1-12.6 6.9-17.9 5.6-17 9.8-39.9 9.9-40.2L298 7c-.2 1-4.4 23.7-10.1 41.2-2.7 8.1-6.8 18.1-10.6 26.7.1.5.2.9.4 1.4 5.4-3.7 10.7-7.6 13.9-10.3 8.2-7 14.9-14.3 14.9-14.4zM110.6 98c0 9.4 1.6 18.4 4.6 26.8l1.5 1.5 1.1.3c16.8 4.6 51.7 14.3 76.6 7.6 14.3-3.8 29.8-17.4 44.9-30.6 8.4-7.3 16.9-14.8 25.6-20.9 1.1-2.4 2.4-5.3 3.8-8.4-10.1-33.1-40.9-57.2-77.3-57.2-44.6.1-80.8 36.3-80.8 80.9zm133.9 11.7c-15.7 13.7-32 27.9-48 32.3-18.5 5-41.3 1.8-59.5-2.2 17.4 9 40.6 14.3 61.4 10.4 22.9-4.3 41.9-28.2 56.9-49.7-3.6 3-7.2 6.1-10.8 9.2zM8 153c0 13.5 4.4 26 11.8 36.1 4.5-19.6 19.8-75 51.6-85.6l.3-.1.4-.1c15.9-2.3 23.8 2.4 31.8 10-.7-3.8-1.1-7.6-1.3-11.5-9.6-6.3-21.1-10-33.5-10C35.5 91.8 8 119.3 8 153zm65.6-41.8c-20.8 7.3-34.1 38.8-41.1 61.7 12.9-19 32.9-44.1 50.2-47.6 7.5-1.5 12.7-2.5 20-1.8-9.1-9.6-14.4-14.3-29.1-12.3zm56.1 50.7c-8.5-8.2-15.3-18.1-20-29.1-11-2.6-15.9-1.7-25.4.2-19.5 4-47.3 46-57.5 63.9 11 10.6 26 17.2 42.5 17.2 30.6.1 56.1-22.7 60.4-52.2zM272.2 98c0-2.6-.1-5.2-.4-7.7l-2.4 3.6c-16.6 24.6-39.3 58.4-69.5 64.1-5.4 1-10.8 1.5-16.3 1.5-22.9 0-45.6-8.3-60.9-19 14.3 23 39.7 38.3 68.7 38.3 44.6 0 80.8-36.2 80.8-80.8z" fill="#fff"/></svg>