<svg version="1.1" xmlns="http://www.w3.org/2000/svg" x="0" y="0" viewBox="0 0 512 208.3" xml:space="preserve"><path d="M511.8 22.2c0 .1-.1.1-.1.2v.1c-.2.3-.5.6-.8.9 0 0-6.9 6.1-8.1 9.3l-61.9 160.9c-4.7 11.8-17.9 17.6-29.7 13.1s-17.7-17.7-13.3-29.5l12.2-31.6c-9.2 7.5-20 14-29.6 12.7-15.9-1.9-11-18.8-5-30.9l-.9.9c-1.3 1.5-2.7 2.7-3.8 3.8-10.4 10.4-26.4 24.1-40 22.3-15.8-2-10.9-18.9-4.9-31-3.4 3.5-6.3 6.4-8.3 7.7-2.2 1.5-3.4-.2-1.3-2 5.5-4.4 12.7-12.2 18.5-20.1 7.1-9.3 20.6-28.1 28.3-41.5 1.6-2.6 4.1-10-2.3-6.5-1.4.5-2.6 1.2-3.7 1.6-1.6.7-2.2 0-.9-1.3 5.7-4.4 18-9.1 24.7-9.3 9 0 9.2 5.1 5.3 11.6-5.3 8.5-22.8 25.7-30.7 35.6-3.5 4.5-45.9 61.2-12.6 48.7 10.2-3.9 23.8-15.5 30.6-22 3.6-3.9 7.5-8.5 10.9-13.1 7.1-9.3 20.6-28.1 28.3-41.5 1.6-2.6 4.1-10-2.3-6.5-1.4.5-2.6 1.2-3.7 1.6-1.6.7-2.2 0-.9-1.3 5.7-4.4 18-9.1 24.7-9.3 9 0 9.2 5.1 5.3 11.6-5.3 8.6-22.8 25.7-30.6 35.8-3.5 4.5-45.9 61.2-12.6 48.7 6.2-2.3 13.5-7.4 19.8-12.5l47.4-123.1c1.5-3.8.2-12.3.2-12.3-.1-.4-.1-.8 0-1.2v-.1c.1-.1.1-.1.1-.2 1.6-4.1 14.5-3 28.8 2.5 14.3 5.4 24.6 13.3 22.9 17.2zm-400.6 81c-.7 0-2 1.3-.9 1.8 1.4.5 2.1 1.8 2.1 3.7-1.3 7.5-10.6 16-14.3 19-.9.9.4 3 1.3 2.1 2-1.6 6.2-4.9 9.7-9.3-5.6 12.6-16.6 28.8-20.8 34.5-16.4 22.8-41.5 43.8-58.6 43.8-13.7 0-25.4-9.3-28-23-.2-1.4-2.1-1.8-1.8.2C3 194.9 17.5 202.3 35 202.3c19.2 0 41.7-13.9 54.1-28.1 20-23 33.1-49.4 29.6-64.4-1.5-5.8-5.3-6.7-7.5-6.6zm19-9.8c3.5-3.9 4-8.8 1.3-10.9-2.8-2.1-7.7-.9-10.9 3-3.6 3.7-4.1 8.4-1.3 10.7 2.8 2.1 7.7.9 10.9-2.8zm64.8 43.8c-5.4 13.1-6.5 26.6-2.6 31.2.7 1.1-.4 1.5-.9 1.1-2.5-2.1-5.8-4.9-6.5-10.7-1.1-8 1.2-18.9 5.8-30.5-1.8 1.8-3.7 3.6-5.5 5.1-13.1 12-29.1 25.6-47.1 25.8-10.7 0-18.6-5.2-18.8-15.1-.2-21.7 24.1-39 44.4-38.3 18.7.5 17.6 15.9.4 24.1-5.4 2.6-13.7 4.8-18.8 4.6-3.1-.2-3.5-1.6.2-1.6 3.1 0 10.8-1.8 17.2-5.1 16.8-9.1 9.3-20.4-3.5-14.6-9.9 4.5-21.4 17.7-23.4 28.8-1.3 7.2 1.7 12.7 9.1 12.5 10.2-.2 26.9-12.3 37.4-21.4l1.1-1.1c3.7-3.3 6.9-7.5 11.1-12.6 12.3-27 26.4-47.8 47.9-67.7 31.9-29.2 55.8-8.4 27.1 19.2-9.6 9.2-25.7 20.1-37.8 25.4-2.5 1.2-4.2-.9-.7-2.3 11.4-5.1 27.8-17 36.6-26.1 21.3-22.3 7.6-26.3-16-5.3-19.3 17.4-39.1 44.4-49.1 61 9.5-12.6 18.6-19.4 26.3-22.5 11.8-4.6 20.4 0 19.5 7.9-.6 4.7-3.4 10.5-10.8 15.8-7.9 5.7-24.6 10.2-32.9 7.1 7.7 9.8 23.9 19.5 32.2 18.2 3.4-.5 6.5-2.7 6.5-5.5 0-.4.9-.4.9 0 0 4.5-4.4 7.5-9.7 8.8-18 3.9-35.2-7.2-39.6-16.2zm6.5-10.3c.3 1 .9 1.9 1.4 2.8l.9.5c4.4 2.6 18.1-1.4 25-6.7 13.3-10.2 5.1-27-15.9-8.2-4 3.5-8 7.4-11.4 11.6zm128.1-33c8.4.9 4.9-9.3-3.7-6.7-3.9 1.1-7.5 8.4-10.2 14.8-8.4 12.6-22.5 29.7-32.4 38.7-8.8 7.5-16.8 9.5-6.9-4.6 4-5.6 9.1-11.6 12-17.7 6.9-15.1-7.9-22-19.7-12.8-6.9 5.3-16.2 16.2-23.6 22.3-2 1.6-1.4 4 .5 2.3 5.8-4.7 16-15.5 24.8-22 7.4-5.6 10.2-2 6 2.8-5.8 6.7-16 18.5-18.7 25.9-3.7 11.1.7 16 8.1 16 10 0 25-15.7 35.1-28.1 3.3-4.2 6.9-9.1 10-13.9-8.8 17-17.9 34.1-29.2 49.6-16 22-36.2 38.3-55.1 38.3-13.7 0-25.6-9.3-28.2-23-.2-1.4-2-1.8-1.8.2 3.1 18.8 17.6 26.1 35.1 26.1 19.2 0 37.7-11.1 50.7-24.8 26.1-27.6 29.2-58.6 37.3-76 3.7-7.4 7.2-7.8 9.9-7.4z" opacity=".1" fill="#fff"/><path d="M438.2 165c.4.9 0 1.9-.9 2.3-.9.4-1.9 0-2.3-.9-.4-.9 0-1.9.9-2.3.9-.4 1.9 0 2.3.9zm-6.3-33.4c-2.6 1.2-3.7 4.1-2.6 6.7 1.2 2.6 4.1 3.7 6.7 2.6 2.6-1.2 3.7-4.1 2.6-6.7-1.1-2.6-4.1-3.7-6.7-2.6zm7.7-25.4c-.9.4-1.3 1.4-.9 2.3.4.9 1.4 1.3 2.3.9.9-.4 1.3-1.4.9-2.3-.5-.9-1.6-1.3-2.3-.9zm-14.9 37.1c-1.3.6-1.9 2.3-1.3 3.6.6 1.3 2.3 1.9 3.6 1.3 1.3-.6 1.9-2.3 1.3-3.6-.6-1.4-2.3-2.1-3.6-1.3zm26.1-24.9c-1.3.6-1.9 2.3-1.3 3.6.6 1.3 2.3 1.9 3.6 1.3 1.3-.6 1.9-2.3 1.3-3.6-.6-1.4-2.2-2-3.6-1.3zm61-96.2c0 .1-.1.1-.1.2v.1c-.2.3-.5.6-.8.9 0 0-6.9 6.1-8.1 9.3l-61.9 160.9c-4.7 11.8-17.9 17.6-29.7 13.1s-17.7-17.7-13.3-29.5l12.2-31.6c-9.2 7.5-20 14-29.6 12.7-15.9-1.9-11-18.8-5-30.9l-.9.9c-1.3 1.5-2.7 2.7-3.8 3.8-10.4 10.4-26.4 24.1-40 22.3-15.8-2-10.9-18.9-4.9-31-3.4 3.5-6.3 6.4-8.3 7.7-2.2 1.5-3.4-.2-1.3-2 5.5-4.4 12.7-12.2 18.5-20.1 7.1-9.3 20.6-28.1 28.3-41.5 1.6-2.6 4.1-10-2.3-6.5-1.4.5-2.6 1.2-3.7 1.6-1.6.7-2.2 0-.9-1.3 5.7-4.4 18-9.1 24.7-9.3 9 0 9.2 5.1 5.3 11.6-5.3 8.5-22.8 25.7-30.7 35.6-3.5 4.5-45.9 61.2-12.6 48.7 10.2-3.9 23.8-15.5 30.6-22 3.6-3.9 7.5-8.5 10.9-13.1 7.1-9.3 20.6-28.1 28.3-41.5 1.6-2.6 4.1-10-2.3-6.5-1.4.5-2.6 1.2-3.7 1.6-1.6.7-2.2 0-.9-1.3 5.7-4.4 18-9.1 24.7-9.3 9 0 9.2 5.1 5.3 11.6-5.3 8.6-22.8 25.7-30.6 35.8-3.5 4.5-45.9 61.2-12.6 48.7 6.2-2.3 13.5-7.4 19.8-12.5l47.4-123.1c1.5-3.8.2-12.3.2-12.3-.1-.4-.1-.8 0-1.2v-.1c.1-.1.1-.1.1-.2 1.6-4.1 14.5-3 28.8 2.5 14.3 5.4 24.6 13.3 22.9 17.2zm-32.3 53.4s-8.5 9.9-16.4 13.5c-7.7 3.3-13.6 2.5-20.5 6.6s-10.5 9.8-10.5 9.8l-9.8 25.4c1.6-1.5 2.9-2.8 3.9-3.8 2.7-2.8 3.2 0 1.6 1.6-1.9 2-4.5 4.7-7.6 7.7l-16.6 43.2c-3.1 8.3 1.5 18.1 10 21.4 8.4 3.3 18-1.1 21.3-9.4l44.6-116zm8.1-66.9c-8.9-3.3-16.8-4.2-17.7-1.9-.9 2.3 5.5 7 14.4 10.4 8.9 3.3 16.8 4.2 17.7 1.9.8-2.4-5.6-7.1-14.4-10.4zm-376.4 94.5c-.7 0-2 1.3-.9 1.8 1.4.5 2.1 1.8 2.1 3.7-1.3 7.5-10.6 16-14.3 19-.9.9.4 3 1.3 2.1 2-1.6 6.2-4.9 9.7-9.3-5.6 12.6-16.6 28.8-20.8 34.5-16.4 22.8-41.5 43.8-58.6 43.8-13.7 0-25.4-9.3-28-23-.2-1.4-2.1-1.8-1.8.2C3 194.9 17.5 202.3 35 202.3c19.2 0 41.7-13.9 54.1-28.1 20-23 33.1-49.4 29.6-64.4-1.5-5.8-5.3-6.7-7.5-6.6zm19-9.8c3.5-3.9 4-8.8 1.3-10.9-2.8-2.1-7.7-.9-10.9 3-3.6 3.7-4.1 8.4-1.3 10.7 2.8 2.1 7.7.9 10.9-2.8zm64.8 43.8c-5.4 13.1-6.5 26.6-2.6 31.2.7 1.1-.4 1.5-.9 1.1-2.5-2.1-5.8-4.9-6.5-10.7-1.1-8 1.2-18.9 5.8-30.5-1.8 1.8-3.7 3.6-5.5 5.1-13.1 12-29.1 25.6-47.1 25.8-10.7 0-18.6-5.2-18.8-15.1-.2-21.7 24.1-39 44.4-38.3 18.7.5 17.6 15.9.4 24.1-5.4 2.6-13.7 4.8-18.8 4.6-3.1-.2-3.5-1.6.2-1.6 3.1 0 10.8-1.8 17.2-5.1 16.8-9.1 9.3-20.4-3.5-14.6-9.9 4.5-21.4 17.7-23.4 28.8-1.3 7.2 1.7 12.7 9.1 12.5 10.2-.2 26.9-12.3 37.4-21.4l1.1-1.1c3.7-3.3 6.9-7.5 11.1-12.6 12.3-27 26.4-47.8 47.9-67.7 31.9-29.2 55.8-8.4 27.1 19.2-9.6 9.2-25.7 20.1-37.8 25.4-2.5 1.2-4.2-.9-.7-2.3 11.4-5.1 27.8-17 36.6-26.1 21.3-22.3 7.6-26.3-16-5.3-19.3 17.4-39.1 44.4-49.1 61 9.5-12.6 18.6-19.4 26.3-22.5 11.8-4.6 20.4 0 19.5 7.9-.6 4.7-3.4 10.5-10.8 15.8-7.9 5.7-24.6 10.2-32.9 7.1 7.7 9.8 23.9 19.5 32.2 18.2 3.4-.5 6.5-2.7 6.5-5.5 0-.4.9-.4.9 0 0 4.5-4.4 7.5-9.7 8.8-18 3.9-35.2-7.2-39.6-16.2zm6.5-10.3c.3 1 .9 1.9 1.4 2.8l.9.5c4.4 2.6 18.1-1.4 25-6.7 13.3-10.2 5.1-27-15.9-8.2-4 3.5-8 7.4-11.4 11.6zm128.1-33c8.4.9 4.9-9.3-3.7-6.7-3.9 1.1-7.5 8.4-10.2 14.8-8.4 12.6-22.5 29.7-32.4 38.7-8.8 7.5-16.8 9.5-6.9-4.6 4-5.6 9.1-11.6 12-17.7 6.9-15.1-7.9-22-19.7-12.8-6.9 5.3-16.2 16.2-23.6 22.3-2 1.6-1.4 4 .5 2.3 5.8-4.7 16-15.5 24.8-22 7.4-5.6 10.2-2 6 2.8-5.8 6.7-16 18.5-18.7 25.9-3.7 11.1.7 16 8.1 16 10 0 25-15.7 35.1-28.1 3.3-4.2 6.9-9.1 10-13.9-8.8 17-17.9 34.1-29.2 49.6-16 22-36.2 38.3-55.1 38.3-13.7 0-25.6-9.3-28.2-23-.2-1.4-2-1.8-1.8.2 3.1 18.8 17.6 26.1 35.1 26.1 19.2 0 37.7-11.1 50.7-24.8 26.1-27.6 29.2-58.6 37.3-76 3.7-7.4 7.2-7.8 9.9-7.4z" fill="#fff"/></svg>